<svg id="Layer_1" data-name="Layer 1" xmlns="http://www.w3.org/2000/svg" viewBox="0 0 41 37"><title>makino-icon</title>
<path d="M20.51,37a1.1,1.1,0,0,1-.46-.1l-19.41-9a1.11,1.11,0,0,1-.58-1.36A182.39,182.39,0,0,1,7.3,8.3a4.95,4.95,0,0,1,7-7l6-1.11h.37l5.66,1a5,5,0,0,1,7.24,6.65A179,179,0,0,1,40.94,26.5a1.11,1.11,0,0,1-.58,1.36L21,36.9A1.1,1.1,0,0,1,20.51,37Z" fill="#66707a" class="outline"/>
<path d="M39.92,26.85A171.38,171.38,0,0,0,32.19,7.68a3.85,3.85,0,1,0-5.56-5.3L20.41,1.27,13.88,2.45A3.84,3.84,0,1,0,8.66,8,175.07,175.07,0,0,0,1.11,26.86l19.41,9ZM28.23,12.47a1.87,1.87,0,0,1-3.6,1Zm-15.46,0,1.79.48,1.83.52a1.87,1.87,0,0,1-3.61-1ZM11.3,21.38l7.2-7.91h4.16l7.18,7.93-4.13,4.89-4.56-1.75L23.69,24l3.14-3.83-2.5-2.77H16.65l-2.5,2.77L17.28,24l2.51.52-4.35,1.76Zm9.13,8.22-3.75-2.16,3.75-1.51,3.75,1.51Z" fill="#121b22" class="dark"/></svg>