<svg id="Layer_1" data-name="Layer 1" xmlns="http://www.w3.org/2000/svg" viewBox="0 0 85.33 92.17"><title>pestipew-icon</title>
<path d="M3,92.15a3,3,0,0,1-2.82-4L3.07,80.3a3,3,0,0,1,2.82-2h1a3,3,0,0,1,0-.53V35.63A35.67,35.67,0,0,1,42.44,0h.27A35.67,35.67,0,0,1,78.34,35.63V77.79a3,3,0,0,1,0,.53h1.12a3,3,0,0,1,2.82,2l2.89,7.85a3,3,0,0,1-2.82,4Z" transform="translate(-0.01)" fill="#66707a"  class="outline"/>
<path d="M42.58,70.13c7,0,13.33,3,16.61,7.63H75.34V35.63A32.63,32.63,0,0,0,42.72,3h-.28A32.63,32.63,0,0,0,9.82,35.63V77.79H26C29.26,73.1,35.64,70.13,42.58,70.13ZM26.14,44.79,29.48,43l6.41,5.26s-.27,1.88-.83,1.88h-5.5C28.42,50.13,27.08,48,26.14,44.79Zm29.61,5.34h-5.5c-.56,0-.83-1.88-.83-1.88L55.83,43l3.34,1.8C58.23,48,56.89,50.13,55.75,50.13ZM23.39,25.91l1.48.32s7.66,2,8.11,2.09a25.79,25.79,0,0,1,3.17-7.19l6.49-8.7,6.58,9a37.55,37.55,0,0,1,3.21,6.74l7.08-1.85,2.13-.41-1,5.18-7,3.58-3.42,1.41-6,9.57,1,7.43,8.49,9.46-3,2.8-.29-.25,1.84-2.67-4.62-4.17H37.24l-4.65,4.16,1.84,2.67-.29.25-3-2.8,8.5-9.45,1-7.43-6-9.67L31.4,34.67l-7-3.58Z" transform="translate(-0.01)" fill="#121b22" class="dark"/>
<path d="M79.42,81.3H58.16c-2.6-4.51-8.52-7.64-15.52-7.64S29.75,76.79,27.15,81.3H5.9L3,89.15H82.32Z" transform="translate(-0.01)" fill="#121b22" class="dark"/></svg>