<svg id="Layer_1" data-name="Layer 1" xmlns="http://www.w3.org/2000/svg" viewBox="0 0 40 46"><title>veroline-icon</title>
<path d="M15.25,46a1.42,1.42,0,0,1-1.42-1.19l-1.42-8.69A1.42,1.42,0,0,1,12.68,35l.16-.18-.47.09a3,3,0,0,1-.61,1.65,2,2,0,0,1-.24.26,3,3,0,0,1-1.45.8L9.73,42.2a1.42,1.42,0,0,1-2.22,1.08l-1.7-1.16a1.42,1.42,0,0,1-.32-.3,1.42,1.42,0,0,1-.36-.18L.76,38.57A1.42,1.42,0,0,1,1,36.11l4.26-1.84a3,3,0,0,1,.59-2.2,2.91,2.91,0,0,1,.3-.33,3,3,0,0,1,.95-.61,4.3,4.3,0,0,1,0-1.42,7,7,0,0,1-5.29-5.06,4.79,4.79,0,0,1,.24-3.42c-.87-.47-1.19-1.74-1.53-3l-.13-.47a11.88,11.88,0,0,1-.21-5.42A8.16,8.16,0,0,1,6,6.2L6.52,6a11.47,11.47,0,0,1,6-4.89l.8-.27.12,0A16.38,16.38,0,0,1,18.54,0,16.86,16.86,0,0,1,29.27,3.86c4.68,3.79,6.32,9.91,7,12.52l0,.13.25,1c.54,2.16.95,3.34,1.25,3.52,1.49.82,1.42,1.89,1.3,2.31C38.83,24.41,37.63,25,35.56,25a13,13,0,0,1-4-.65q0,.16.08.32a4.56,4.56,0,0,1,.1.76,3.16,3.16,0,0,1,1.24.44,2.93,2.93,0,0,1,.37.27A3.16,3.16,0,0,1,34.46,28l4.74.9A1.42,1.42,0,0,1,40,31.23l-3.61,3.94a1.42,1.42,0,0,1-.3.25,1.42,1.42,0,0,1-.25.36l-1.42,1.5a1.42,1.42,0,0,1-2.4-.56l-1.17-3.89a3.41,3.41,0,0,1-.47,0,3.2,3.2,0,0,1-2.06-.73,3.15,3.15,0,0,1-1-1.68,5.18,5.18,0,0,1-.57,0h-.47c-.33.27-.67.54-1,.78l-.21.95.71,0a1.42,1.42,0,0,1,1.22,2L26.6,35l2.6.79a1.42,1.42,0,0,1,1,1.66l-1.61,7.44A1.42,1.42,0,0,1,27.19,46Z" fill="#66707a" class="outline"/>
<path d="M6.07,35.48,1.58,37.41,6,40.48l1.31-1.61-.66,2.07,1.7,1.16.38-4.84a2.63,2.63,0,0,1-1.89-.72A2.74,2.74,0,0,1,6.07,35.48Z" class="dark" fill="#121b22"/>
<path d="M38.91,30.28,34,29.36a2.74,2.74,0,0,1-.43,1.26A2.64,2.64,0,0,1,32,31.78l1.36,4.54,1.42-1.5-1.09-1.89,1.63,1.28Z"  class="dark" fill="#121b22"/>
<polygon points="20.08 18.73 21.11 19.32 22.07 17.66 23.73 18.61 24.32 17.59 22.66 16.63 23.62 14.96 22.59 14.37 21.64 16.04 19.97 15.07 19.38 16.1 21.05 17.06 20.08 18.73" fill="#121b22" class="dark"/>
<polygon points="13.74 17.61 12.71 17.02 11.75 18.68 10.09 17.72 9.5 18.75 11.16 19.71 10.2 21.37 11.22 21.96 12.18 20.3 13.85 21.26 14.44 20.24 12.78 19.27 13.74 17.61" fill="#121b22" class="dark"/>
<path d="M32.39,30.43a2.3,2.3,0,0,0,.08-3.23l-.2-.14a2.12,2.12,0,0,0-2.15.08L30,27a3.15,3.15,0,0,0-.8-3.84q.08-.28.14-.57a2.69,2.69,0,0,0,.7-.33l.2-.15c3.45,2.23,9.4,1.52,6.86.12-1.17-.65-1.68-3.5-2.18-5.37C34.31,14.53,32.77,8.56,28.37,5A15.46,15.46,0,0,0,13.94,2.15l0,0c-.28.08-.56.18-.83.27A9.72,9.72,0,0,0,7.53,7.18c-.34.09-.72.2-1.12.34C.2,9.64,1.34,15.63,1.8,17.33c.58,2.16.95,4.26,2.37,1a7.58,7.58,0,0,1,.47-.88,12.14,12.14,0,0,0,.42,3l0,.14c-1.57.17-2.4,1.69-1.89,3.61a5.47,5.47,0,0,0,4.41,4,2.65,2.65,0,0,0,.87-.09c.18.2.37.4.57.59a2.87,2.87,0,0,0,.08,3.52l-.06.1a1.93,1.93,0,0,0-1.93.34L7,32.93a2.09,2.09,0,0,0,.69,2.84,2.1,2.1,0,0,0,2.81.07l.13-.13a1.92,1.92,0,0,0-.16-2.32l.07-.08a3.42,3.42,0,0,0,1.22.22,3.27,3.27,0,0,0,2.9-1.68,12,12,0,0,0,4.12.27l-.05,1.14-1.62-.09.38,2.24-3.64.43,1.42,8.69h12l1.59-7.44-4.15-1.26,1-2.21-2.37-.12.68-3.16a12,12,0,0,0,1.85-1.42,3.79,3.79,0,0,0,3-.47l.09.07a2.11,2.11,0,0,0,.36,2.53,1.74,1.74,0,0,0,1.12.4A2.71,2.71,0,0,0,32.39,30.43ZM12.95,23.21a3.84,3.84,0,1,1,2.71-4.71h0A3.81,3.81,0,0,1,13,23.19Zm5.58-8.28a3.84,3.84,0,1,1-.37,2.91A3.84,3.84,0,0,1,18.53,14.92Z" fill="#121b22" class="dark"/></svg>