<svg id="Layer_1" data-name="Layer 1" xmlns="http://www.w3.org/2000/svg" viewBox="0 0 757.39 298.68"><title>logo_LLoT_white</title><path d="M351.25,76.88,363,85.39l-2.12,1.53H347.14v-10h4.11m.37-1.14H346V88.06h15.27l3.7-2.67-13.35-9.65Z" style="fill:#fff"/><path d="M370.44,283.43a.57.57,0,0,1-.51-.31L358,260.25a.57.57,0,0,1,.25-.77l10.22-5.24V211.81l-10.69-9.13a.57.57,0,0,1,0-.85L396.61,166a.57.57,0,0,1,1,.42l0,87.49h14.3L430,240.86a.57.57,0,0,1,.91.46v32a.57.57,0,0,1-.11.33l-6.71,9.47a.57.57,0,0,1-.47.24l-53.16.09Zm-11.16-23.2,11.5,22.05,52.52-.09,6.43-9.08V242.44L412.41,255a.57.57,0,0,1-.33.11H397a.57.57,0,0,1-.57-.57l0-86.76L359,202.23l10.4,8.88a.57.57,0,0,1,.2.43v43a.57.57,0,0,1-.31.51Z" style="fill:#fff"/><polygon points="413.19 257.94 393.59 257.94 393.57 174.27 363.32 202.15 372.47 209.97 372.47 256.68 363.15 261.46 372.52 279.43 421.83 279.35 426.88 272.21 426.88 248.04 413.19 257.94" style="fill:#fff"/><polygon points="346.91 197.1 354.61 182.42 318.09 182.42 325.79 197.1 325.79 264.9 318.09 279.59 354.61 279.59 346.91 264.9 346.91 197.1" style="fill:#fff"/><path d="M479.29,283.59H431.43a.57.57,0,0,1-.51-.84l9.87-18.83V198.09l-9.87-18.83a.57.57,0,0,1,.51-.84h47.86a.57.57,0,0,1,.51.84l-9.87,18.83v65.83l9.87,18.83a.57.57,0,0,1-.51.84Zm-46.92-1.14h46l-9.5-18.12a.57.57,0,0,1-.07-.27V197.95a.57.57,0,0,1,.07-.27l9.5-18.12h-46l9.5,18.12a.57.57,0,0,1,.07.27v66.11a.57.57,0,0,1-.07.27Z" style="fill:#fff"/><polygon points="465.92 197.1 473.62 182.42 437.1 182.42 444.8 197.1 444.8 264.9 437.1 279.59 473.62 279.59 465.92 264.9 465.92 197.1" style="fill:#fff"/><path d="M696.57,283.59H648.71a.57.57,0,0,1-.51-.84l9.87-18.83V208h-2.7l-12.69,10.84a.57.57,0,0,1-.94-.43V179a.57.57,0,0,1,.57-.57H703a.57.57,0,0,1,.57.57v39.42a.57.57,0,0,1-.94.43L689.9,208h-2.7v55.91l9.87,18.83a.57.57,0,0,1-.51.84Zm-46.92-1.14h46l-9.5-18.12a.57.57,0,0,1-.07-.27V207.43a.57.57,0,0,1,.57-.57h3.49a.57.57,0,0,1,.37.14l11.91,10.17V179.56H642.88v37.61L654.79,207a.57.57,0,0,1,.37-.14h3.49a.57.57,0,0,1,.57.57v56.62a.57.57,0,0,1-.07.27Z" style="fill:#fff"/><polygon points="645.73 182.42 645.73 210.97 653.89 204 662.07 204 662.07 264.9 654.37 279.59 690.9 279.59 683.2 264.9 683.2 204 691.38 204 699.54 210.97 699.54 182.42 645.73 182.42" style="fill:#fff"/><path d="M200.87,296.18H144.73a.57.57,0,0,1-.51-.84l11.62-22.16v-110H137.43l-14.54,12.42a.57.57,0,0,1-.94-.43v-45.9a.57.57,0,0,1,.57-.57H223.08a.57.57,0,0,1,.57.57v45.9a.57.57,0,0,1-.94.43l-14.54-12.42H189.76v110l11.62,22.16a.57.57,0,0,1-.51.84ZM145.67,295h54.25l-11.25-21.45a.57.57,0,0,1-.07-.27V162.59a.57.57,0,0,1,.57-.57h19.19a.57.57,0,0,1,.37.14l13.76,11.75V129.83H123.09v44.08l13.76-11.75a.57.57,0,0,1,.37-.14h19.19a.57.57,0,0,1,.57.57V273.32a.57.57,0,0,1-.07.27Z" style="fill:#fff"/><polygon points="125.95 132.68 125.95 167.71 135.96 159.16 159.84 159.16 159.84 274.16 150.4 292.18 195.2 292.18 185.76 274.16 185.76 159.16 209.64 159.16 219.65 167.71 219.65 132.68 125.95 132.68" style="fill:#fff"/><polygon points="94.53 221.13 99.12 229.89 99.15 250.67 99.15 270.62 94.53 279.43 116.44 279.43 111.82 270.62 111.82 255.03 117.92 255.03 123.63 259.16 123.63 246.1 111.82 246.1 111.82 234.08 127.31 234.08 132.2 238.26 132.2 221.13 94.53 221.13" style="fill:#fff"/><path d="M74.71,290.94a.57.57,0,0,1-.38-.15l-20.86-19a.57.57,0,0,1-.19-.42V229.8a.57.57,0,0,1,.19-.42l20.86-19a.57.57,0,0,1,.77,0l17.83,16.35L88.35,218a.57.57,0,0,1,.51-.84h46.77a.57.57,0,0,1,.57.57v28a.57.57,0,0,1-.94.43l-9.43-8.05h-10v4h11.24a.57.57,0,0,1,.57.57v23.2a.57.57,0,0,1-.91.46L116.62,259h-.8v10.6l6.79,13a.57.57,0,0,1-.51.84H88.86a.57.57,0,0,1-.51-.84l4-7.54L75.09,290.79A.57.57,0,0,1,74.71,290.94ZM54.42,271.13l20.29,18.46L93.94,272a.57.57,0,0,1,.89.69l-5,9.59h31.36L114.74,270a.57.57,0,0,1-.07-.27V258.46a.57.57,0,0,1,.57-.57h1.56a.57.57,0,0,1,.33.11l9.34,6.76V243.24H115.25a.57.57,0,0,1-.57-.57v-5.17a.57.57,0,0,1,.57-.57H126a.57.57,0,0,1,.37.14l8.65,7.39V218.27H89.8l5.66,10.79a.57.57,0,0,1-.89.69L74.71,211.53,54.42,230.05Z" style="fill:#fff"/><path d="M74.7,215.41,57.28,231.32v38.55L74.7,285.72l17.35-15.86V231.32Zm4.91,50.41-4.91,4.41-5-4.41V235.36l5-4.41,4.91,4.41Z" style="fill:#fff"/><path d="M514.23,298.68a.57.57,0,0,1-.39-.15l-32.5-29.65a.57.57,0,0,1-.19-.42V201.19a.57.57,0,0,1,.19-.42l32.5-29.65a.57.57,0,0,1,.77,0l34.1,31.29a.57.57,0,0,1,0,.86l-29.36,24.46a.57.57,0,0,1-.94-.44V211.23l-4.2-3.77-4.31,3.8v19.56h36.66a.57.57,0,0,1,.57.57v37.08a.57.57,0,0,1-.19.42l-32.32,29.65A.57.57,0,0,1,514.23,298.68ZM482.3,268.21l31.93,29.13L546,268.21V232H509.31a.57.57,0,0,1-.57-.57V211a.57.57,0,0,1,.19-.43l4.89-4.3a.57.57,0,0,1,.76,0l4.76,4.28a.57.57,0,0,1,.19.42v15.1l27.92-23.26-33.23-30.49L482.3,201.44Z" style="fill:#fff"/><polygon points="543.12 202.7 514.22 176.19 485.16 202.7 485.16 266.95 514.22 293.46 543.12 266.95 543.12 234.83 514.14 234.83 514.14 256.59 522.39 249.72 522.39 260.21 514.22 267.55 505.89 260.21 505.89 209.44 514.22 202.1 522.39 209.44 522.39 219.97 543.12 202.7" style="fill:#fff"/><path d="M360.28,283.59H312.42a.57.57,0,0,1-.51-.84l9.87-18.83V198.09l-8.24-15.71-10.91,16.21-9.81,65.88,6.89,18.35a.57.57,0,0,1-.53.77H212.41a.57.57,0,0,1-.53-.77l6.89-18.35L209,198.59l-13-19.28a.57.57,0,0,1,.47-.89h47.91a.57.57,0,0,1,.53.77L238,197.54l3.82,25.64,13.42-48.88a.57.57,0,0,1,1.1,0l13.42,48.88,3.82-25.64-6.89-18.35a.57.57,0,0,1,.53-.77h93.05a.57.57,0,0,1,.51.84l-9.87,18.83v65.83l9.87,18.83a.57.57,0,0,1-.51.84Zm-46.92-1.14h46l-9.5-18.12a.57.57,0,0,1-.07-.27V197.95a.57.57,0,0,1,.07-.27l9.5-18.12H268.05l6.65,17.71a.57.57,0,0,1,0,.29L270.49,226a.57.57,0,0,1-1.12.07l-13.58-49.49L242.21,226.1a.57.57,0,0,1-1.12-.07l-4.24-28.47a.57.57,0,0,1,0-.29l6.65-17.71h-46L210,198.06a.57.57,0,0,1,.09.23l9.85,66.15a.57.57,0,0,1,0,.29l-6.65,17.71h85.13l-6.65-17.71a.57.57,0,0,1,0-.29l9.85-66.15a.57.57,0,0,1,.09-.23l11.52-17.11a.57.57,0,0,1,1,.05l8.75,16.69a.57.57,0,0,1,.07.27v66.11a.57.57,0,0,1-.07.27Z" style="fill:#fff"/><polygon points="308.7 182.42 272.18 182.42 277.69 197.1 270.92 242.53 255.79 187.41 240.66 242.53 233.9 197.1 239.41 182.42 202.89 182.42 212.77 197.1 222.87 264.9 217.35 279.59 253.88 279.59 249.57 273.18 255.79 250.54 262.02 273.18 257.71 279.59 294.23 279.59 288.72 264.9 298.81 197.1 308.7 182.42" style="fill:#fff"/><path d="M638.82,283.59H548a.57.57,0,0,1-.51-.84l9.87-18.83,0-39.44,0-26.39-9.87-18.83a.57.57,0,0,1,.51-.84h90.8a.57.57,0,0,1,.51.84l-9.87,18.83,0,32.91,0,32.91,9.87,18.83a.57.57,0,0,1-.51.84ZM549,282.44h88.91l-9.5-18.12a.57.57,0,0,1-.07-.26l0-33.05,0-33.06a.57.57,0,0,1,.07-.26l9.5-18.12H549l9.5,18.12a.57.57,0,0,1,.07.27l0,26.53,0,39.58a.57.57,0,0,1-.07.27Zm44.46-3.55a.57.57,0,0,1-.51-.31l-7.48-14.27a.57.57,0,0,1-.07-.27V242.78a.57.57,0,0,1,.57-.57h0l15,0a.57.57,0,0,1,.57.57l0,21.26a.57.57,0,0,1-.07.27l-7.48,14.27A.57.57,0,0,1,593.42,278.9Zm-6.91-15,6.91,13.18,6.91-13.18,0-20.55-13.81,0Zm14.39-42.28H586a.57.57,0,0,1-.57-.57V197.95a.57.57,0,0,1,.07-.27l7.48-14.27a.6.6,0,0,1,1,0l7.48,14.27a.57.57,0,0,1,.07.27v23.11a.57.57,0,0,1-.57.57Zm-14.38-1.15h13.81v-22.4l-6.91-13.18-6.91,13.18Z" style="fill:#fff"/><polygon points="625.42 231 625.45 197.1 633.15 182.42 596.63 182.42 604.32 197.1 604.33 224.48 604.28 224.48 604.28 224.49 582.52 224.48 582.51 197.1 590.21 182.42 553.68 182.42 561.38 197.1 561.4 224.48 561.38 264.9 553.68 279.59 590.21 279.59 582.51 264.9 582.5 239.34 604.3 239.38 604.33 264.9 596.63 279.59 633.15 279.59 625.45 264.9 625.42 231" style="fill:#fff"/><path d="M722.91,131.41a.57.57,0,0,1-.38-.15L688.14,99.94a.57.57,0,0,1,0-.87L713.3,78.82l-23.06-10a.57.57,0,0,1-.34-.52l-.11-34.39a.57.57,0,0,1,.19-.42L722.52,3.94a.57.57,0,0,1,.77,0L757.2,35a.57.57,0,0,1,0,.84l-23.77,22,22,9.25a.57.57,0,0,1,.35.53v33.61a.57.57,0,0,1-.18.42L723.3,131.26A.57.57,0,0,1,722.91,131.41ZM689.4,99.55l33.5,30.52,31.7-29.13V68l-22.43-9.44a.57.57,0,0,1-.17-.95l24-22.14L722.91,5.13l-32,29L691,67.93l23.59,10.22a.57.57,0,0,1,.13,1Zm33.46-3.28a.57.57,0,0,1-.38-.14l-4.92-4.31a.57.57,0,0,1-.19-.43V80.21a.57.57,0,0,1,.8-.52l9.65,4.18a.57.57,0,0,1,.34.52v7a.57.57,0,0,1-.19.42l-4.73,4.28A.57.57,0,0,1,722.86,96.26Zm-4.34-5.14,4.34,3.8L727,91.16v-6.4l-8.51-3.68Zm9.08-34.59a.57.57,0,0,1-.22,0l-9.65-4.06a.57.57,0,0,1-.35-.53V43.73a.57.57,0,0,1,.19-.43L722.49,39a.57.57,0,0,1,.76,0L728,43.27a.57.57,0,0,1,.19.42V56a.57.57,0,0,1-.57.57Zm-9.08-5L727,55.11V44l-4.17-3.77L718.52,44Z" style="fill:#fff"/><polygon points="751.75 69.85 714.52 54.18 714.52 42.17 722.9 34.83 731.02 42.17 731.02 54.59 751.75 35.43 722.9 9 693.79 35.43 693.89 66.05 731.02 82.14 731.02 92.94 722.9 100.28 714.52 92.94 714.52 82.98 693.79 99.68 722.9 126.2 751.75 99.68 751.75 69.85" style="fill:#fff"/><path d="M492.5,130.22a.57.57,0,0,1-.38-.15l-32.48-29.56a.57.57,0,0,1-.19-.42V32.81a.57.57,0,0,1,.19-.42L492.11,2.74a.57.57,0,0,1,.77,0L525.22,32.4a.57.57,0,0,1,.19.42v67.27a.57.57,0,0,1-.19.42l-32.34,29.56A.57.57,0,0,1,492.5,130.22ZM460.59,99.84l31.9,29,31.77-29V33.07L492.5,3.94l-31.9,29.13Zm31.88-4.68a.57.57,0,0,1-.38-.14l-4.87-4.3a.57.57,0,0,1-.19-.43V42.61a.57.57,0,0,1,.19-.43l4.87-4.3a.57.57,0,0,1,.76,0l4.78,4.28a.57.57,0,0,1,.19.43V90.3a.57.57,0,0,1-.19.43L492.85,95A.57.57,0,0,1,492.47,95.16ZM488.17,90l4.3,3.79L496.68,90V42.85l-4.21-3.77-4.3,3.79Z" style="fill:#fff"/><path d="M492.49,7.81l-29,26.51V98.57l29,26.43,28.92-26.43V34.33Zm8.19,84-8.19,7.34-8.32-7.34V41.07l8.32-7.34,8.19,7.34Z" style="fill:#fff"/><path d="M665.94,117H605.6a.57.57,0,0,1-.51-.84L615,97.3V31.47l-9.87-18.83a.57.57,0,0,1,.51-.84h60.34a.57.57,0,0,1,.39.15l17.78,16.32a.57.57,0,0,1,.19.42v71.39a.57.57,0,0,1-.19.42l-17.78,16.32A.57.57,0,0,1,665.94,117Zm-59.39-1.14h59.17l17.43-16V28.94l-17.43-16H606.55L616,31.06a.57.57,0,0,1,.07.27V97.44a.57.57,0,0,1-.07.27Zm45.72-21.47h-8.74a.57.57,0,0,1-.57-.57V35a.57.57,0,0,1,.57-.57h8.74a.57.57,0,0,1,.38.15l3.48,3.12a.57.57,0,0,1,.19.42V90.66a.57.57,0,0,1-.19.42l-3.48,3.12A.57.57,0,0,1,652.26,94.36Zm-8.17-1.14h8l3.12-2.81v-52L652,35.55h-8V93.21Z" style="fill:#fff"/><path d="M664.61,15.8H611.27L619,30.49v67.8L611.27,113h53.34l15.69-14.39V30.2Zm-5.44,76.39-5.59,5H640.09V31.56h13.48l5.59,5Z" style="fill:#fff"/><path d="M598.24,116.88H575a.57.57,0,0,1-.57-.57V79.11l-3.12-2.81h-8v30.51a.57.57,0,0,1-.1.32l-6.49,9.5a.57.57,0,0,1-.47.25H524.86a.57.57,0,0,1-.51-.84l9.89-18.75V31.47l-9.87-18.83a.57.57,0,0,1,.51-.84h60.34a.57.57,0,0,1,.39.15l17.78,16.32a.57.57,0,0,1,.19.42V57a.57.57,0,0,1-.22.45l-8.74,7,8.74,6.9a.57.57,0,0,1,.22.45v34.75a.57.57,0,0,1-.06.25l-4.75,9.77A.57.57,0,0,1,598.24,116.88Zm-22.66-1.14h22.3l4.54-9.33V72.07l-9.09-7.17a.57.57,0,0,1,0-.9l9.09-7.25V28.94L585,12.94H525.82l9.5,18.12a.57.57,0,0,1,.07.27v66.1a.57.57,0,0,1-.07.27l-9.51,18H556l6.22-9.11V75.73a.57.57,0,0,1,.57-.57h8.74a.57.57,0,0,1,.38.15l3.48,3.13a.57.57,0,0,1,.19.42Zm-4-61.71h-8.74a.57.57,0,0,1-.57-.57V35a.57.57,0,0,1,.57-.57h8.74a.57.57,0,0,1,.38.15l3.48,3.12a.57.57,0,0,1,.19.42V50.34a.57.57,0,0,1-.19.42l-3.48,3.12A.57.57,0,0,1,571.54,54Zm-8.17-1.14h8l3.12-2.81V38.36l-3.12-2.81h-7.95Z" style="fill:#fff"/><path d="M599.56,30.2,583.88,15.8H530.54l7.7,14.69v67.8l-7.7,14.6h23.95l4.87-7.13V72.3h13.49l5.59,5v35.56H596.1l3.47-7.13V73.46l-11.4-9,11.4-9.08Zm-40.2,23.43V31.56h13.48l5.59,5V51.87l-5.59,5H559.37Z" style="fill:#fff"/><path d="M589,58.25" style="fill:#fff"/><path d="M423.4,169.58a.57.57,0,0,1-.51-.31L409,142.72a.57.57,0,0,1,.25-.77l12.12-6.22V26.5L410,4.65a.57.57,0,0,1,.51-.84h55.35a.57.57,0,0,1,.51.84L454.87,26.5V135.69H490.8l21.29-17.53a.57.57,0,0,1,.93.44v41.82a.57.57,0,0,1-.21.44l-10.45,8.49a.57.57,0,0,1-.36.13l-78.61.09ZM410.32,142.7l13.42,25.73,78.06-.09,10.08-8.19V119.81L491.37,136.7a.57.57,0,0,1-.36.13H454.3a.57.57,0,0,1-.57-.57V26.35a.57.57,0,0,1,.07-.27L464.87,5H411.41l11.08,21.14a.57.57,0,0,1,.07.27V136.08a.57.57,0,0,1-.31.51Z" style="fill:#fff"/><polygon points="492.24 139.69 450.87 139.69 450.87 25.51 460.15 7.81 416.13 7.81 425.41 25.51 425.41 138.17 414.18 143.93 425.47 165.57 500.78 165.48 509.03 158.79 509.03 125.86 492.24 139.69" style="fill:#fff"/><polygon points="292.78 91.49 273.19 91.49 273.17 7.82 242.91 35.69 252.06 43.51 252.06 90.23 242.74 95.01 252.11 112.97 301.42 112.89 306.48 105.76 306.48 81.58 292.78 91.49" style="fill:#fff"/><polygon points="93.17 30.49 100.87 15.81 64.35 15.81 72.05 30.49 72.05 98.29 64.35 112.97 100.87 112.97 93.17 98.29 93.17 30.49" style="fill:#fff"/><polygon points="113.26 15.81 113.26 44.36 121.42 37.39 129.59 37.39 129.59 98.29 121.9 112.97 158.42 112.97 150.72 98.29 150.72 37.39 158.9 37.39 167.06 44.36 167.06 15.81 113.26 15.81" style="fill:#fff"/><polygon points="177.66 15.81 177.66 44.36 185.82 37.39 194 37.39 194 98.29 186.3 112.97 222.83 112.97 215.13 98.29 215.13 37.39 223.31 37.39 231.47 44.36 231.47 15.81 177.66 15.81" style="fill:#fff"/><polygon points="369.19 37.39 377.35 44.36 377.35 15.81 314.56 15.81 322.22 30.41 322.26 98.29 314.56 112.97 376.89 112.89 376.89 81.58 363.2 91.49 343.39 91.49 343.39 72.31 353.55 72.31 363.07 79.19 363.07 57.43 343.39 57.43 343.39 37.39 369.19 37.39" style="fill:#fff"/><path d="M275.45,2.61l0,85.45a1.14,1.14,0,0,0,1.14,1.14h15.06a1.14,1.14,0,0,0,.67-.22l16.42-11.88v29.38l-6.16,8.69-51.88.09L239.65,94l9.5-4.88a1.14,1.14,0,0,0,.62-1v-43a1.14,1.14,0,0,0-.4-.87l-9.91-8.46,36-33.15M276.59,0,237.75,35.79l10.89,9.3v43l-10.53,5.4L250,116.41l53.16-.09,6.71-9.47v-32L291.67,88.06H276.61l0-88.06Z" style="fill:#fff"/><path d="M104.65,13.52,95.59,30.81a1.14,1.14,0,0,0-.13.53V97.44a1.14,1.14,0,0,0,.13.53l9.06,17.29H60.57L69.63,98a1.14,1.14,0,0,0,.13-.53V31.34a1.14,1.14,0,0,0-.13-.53L60.57,13.52h44.08m1.89-1.14H58.68l9.94,19V97.44l-9.94,19h47.86l-9.94-19V31.34l9.94-19Z" style="fill:#fff"/><path d="M169.35,13.52v35.8l-11-9.37a1.14,1.14,0,0,0-.74-.27h-3.49A1.14,1.14,0,0,0,153,40.82V97.44a1.14,1.14,0,0,0,.13.53l9.06,17.29H118.12L127.18,98a1.14,1.14,0,0,0,.13-.53V40.82a1.14,1.14,0,0,0-1.14-1.14h-3.49a1.14,1.14,0,0,0-.74.27l-11,9.37V13.52h58.37m1.14-1.14H109.83V51.8l12.85-11h3.49V97.44l-9.94,19h47.86l-9.94-19V40.82h3.49l12.85,11V12.38Z" style="fill:#fff"/><path d="M233.75,13.52v35.8l-11-9.37a1.14,1.14,0,0,0-.74-.27h-3.49a1.14,1.14,0,0,0-1.14,1.14V97.44a1.14,1.14,0,0,0,.13.53l9.06,17.29H182.53L191.59,98a1.14,1.14,0,0,0,.13-.53V40.82a1.14,1.14,0,0,0-1.14-1.14h-3.49a1.14,1.14,0,0,0-.74.27l-11,9.37V13.52h58.37m1.14-1.14H174.24V51.8l12.85-11h3.49V97.44l-9.94,19H228.5l-9.94-19V40.82H222l12.85,11V12.38Z" style="fill:#fff"/><path d="M379.64,13.52v35.8l-11-9.37a1.14,1.14,0,0,0-.74-.27H346.82a1.14,1.14,0,0,0-1.14,1.14V54a1.14,1.14,0,0,0,1.14,1.14h18.53V84.87a1.14,1.14,0,0,0,1.81.93l12-8.69v38.07l-68.39.08L319.85,98a1.14,1.14,0,0,0,.13-.53l0-66.2a1.14,1.14,0,0,0-.13-.53l-9-17.2h68.85m1.14-1.14H308.9l9.89,18.87,0,66.2-9.94,19,71.43-.08V74.87l-13.83,10V54H346.82V40.82h21.11l12.85,11V12.38Z" style="fill:#fff"/><path d="M54.38,6.68,43.74,27a1.14,1.14,0,0,0-.13.53v109.9a1.14,1.14,0,0,0,1.14,1.14H81.46a1.14,1.14,0,0,0,.73-.26l19.58-16.12V161L92,168.92,14.54,169l-13-24.91L13,138.24a1.14,1.14,0,0,0,.62-1V27.51a1.14,1.14,0,0,0-.13-.53L2.8,6.68H54.38m1.89-1.14H.91l11.52,22V137.23L0,143.61l13.85,26.55,78.61-.09,10.45-8.49V119.75L81.46,137.41H44.75V27.51l11.52-22Z" style="fill:#fff"/><polygon points="82.69 140.84 41.32 140.84 41.32 26.66 50.6 8.96 6.58 8.96 15.86 26.66 15.86 139.32 4.64 145.08 15.93 166.72 91.24 166.63 99.48 159.94 99.48 127.01 82.69 140.84" style="fill:#fff"/></svg>