<svg xmlns="http://www.w3.org/2000/svg" viewBox="0 0 16 16"><path d="M16,7.39c-.09-.49-.39,0-.38.25a10.59,10.59,0,0,1-1.52,2.25c-.1,0-1.8.87-2.28,1-.15,0-2.72-.16-3.92-.37C6.54,10,5.7,7.89,5.7,7.89L5.83,5,6.46,3.4a7.81,7.81,0,0,1,1.27-.87,31.77,31.77,0,0,1,4.43-.87A17.14,17.14,0,0,0,10,.15C9.66-.12,7.92.06,7.47,0a6.52,6.52,0,0,0-2.53.5c-.62.34-2.78,1.66-3.29,2S1,3.28.89,3.4a1.35,1.35,0,0,0-.38.75C.5,4.39.06,9.6,0,9.76a22.39,22.39,0,0,0,2.91,4C4.14,15.12,7.79,16,8.1,16s5.3-2.13,5.44-2.25a27.66,27.66,0,0,0,2-3A7.42,7.42,0,0,0,16,7.39Zm-4.3-2.12-1-2.12L9.75,5.39H7.22L9,7s-.54,1.55-.63,1.75,0,.51.13.5,2.15-1.5,2.15-1.5l2,1.5-.38-2.5,1.65-1.37Z" /></svg>