<svg xmlns="http://www.w3.org/2000/svg" viewBox="0 0 160 59.01"><path d="M44.23,44.26,35.64,31.11l7.83-7.95H37.85l-8.4,8.47V23.14H24.86V44.26h4.58V37l2.81-2.82L38.6,44.26ZM10.16,22.77a10.07,10.07,0,0,0-5.68,1.65V15.78H0V33.84c0,6.34,3.58,10.87,10.16,10.87h.53a3.24,3.24,0,0,0,.55,0c6-.47,9.35-4.9,9.35-10.94C20.59,27.36,16.8,22.77,10.16,22.77Zm.14,18.31C6.35,41,4.58,37.35,4.57,33.79v-.59c.15-3.42,1.73-6.8,5.6-6.8,4.08,0,5.94,3.75,5.94,7.34S14.28,41,10.3,41.08Zm45.6,3.55c6.63,0,10.42-4.59,10.42-11s-3.79-11-10.42-11v3.62c4.08,0,5.87,3.74,5.87,7.37S60,41,55.9,41,50,37.26,50,33.68H45.47C45.47,40,49.27,44.63,55.9,44.63Zm36.7-22c-3.06,0-5.17.94-6.54,2.57-1.38-1.63-3.49-2.57-6.56-2.57-2.91,0-5,.8-6.34,2.21H70.67V44.26h4.51V33c0-4.08.88-6.54,4.32-6.54S83.75,29,83.75,33V44.26h4.61V33c0-4,.92-6.58,4.24-6.58S96.94,28.9,96.94,33V44.26h4.45V33C101.38,26.88,99.35,22.6,92.6,22.6ZM78.92,50.28,76.63,55.5h1.32l2.78-6.34H77.8Zm-32,0h2.94L47.55,55.5h1.33l2.28-5.18h2.93l.51-1.16h-7.2Zm14.33,4a.11.11,0,0,1-.09.06H56.7s-.06,0,0-.06l2.25-5.12H57.59l-2.25,5.12c-.3.68.08,1.23.85,1.23h4.42a2.27,2.27,0,0,0,1.93-1.23l2.25-5.12H63.46Zm28.61-5.12H85.4a2.26,2.26,0,0,0-1.93,1.23l-1.71,3.9c-.3.68.08,1.23.85,1.23H87A2.27,2.27,0,0,0,89,54.27l1.71-3.9C91,49.7,90.58,49.15,89.82,49.15Zm-2.19,5.12a.11.11,0,0,1-.09.06H83.13s-.06,0,0-.06l1.71-3.9a.11.11,0,0,1,.1-.06h4.42s0,0,0,.06ZM43.72,49.15H39.3a2.26,2.26,0,0,0-1.93,1.23l-.57,1.3c-.3.68.08,1.22.85,1.22h4.42s0,0,0,.06l-.57,1.3a.11.11,0,0,1-.09.06h-5.8c-.25.65.13,1.16.88,1.16h4.42a2.27,2.27,0,0,0,1.93-1.23l.57-1.3c.3-.68-.09-1.22-.85-1.22H38.16s-.06,0,0-.06l.57-1.3a.11.11,0,0,1,.1-.06h5.8C44.84,49.67,44.45,49.15,43.72,49.15Zm56.06,0H95.36a2.26,2.26,0,0,0-1.93,1.23l-.57,1.3c-.3.68.08,1.22.85,1.22h4.42s0,0,0,.06l-.57,1.3a.11.11,0,0,1-.09.06H91.7c-.25.65.13,1.16.88,1.16H97a2.27,2.27,0,0,0,1.93-1.23l.57-1.3c.3-.68-.09-1.22-.85-1.22H94.22s-.06,0,0-.06l.57-1.3a.11.11,0,0,1,.1-.06h5.8C100.9,49.67,100.52,49.15,99.78,49.15Zm-25.69,0h-5.8l-.51,1.16h5.8s.06,0,0,.06l-1.71,3.9a.11.11,0,0,1-.1.06H67.4s-.06,0,0-.06l1.22-2.79H67.27l-1.76,4h5.8a2.27,2.27,0,0,0,1.94-1.23l1.71-3.9C75.25,49.7,74.86,49.15,74.09,49.15Zm85.57-19.57a23.81,23.81,0,0,0-4.84-10.92l-1.24-1-.06-1.09-.48-.12.13-.6-1.93-.44.21-.4-2-.5.06-.65-.58-.22.75-.58,0-1.56-1.19.52a1.52,1.52,0,0,0-1.41-1l-.24,0,.46-.46-1.56-1.5-.3.3-.48,0-.8,1.21-.94,0,.49-.67-.65-1.17.51-.55L142,6.89l-.69.16.31.67a.65.65,0,0,0-.71.56.66.66,0,0,0,.41.7l-.39.2-1.16-.52v-1h-1.5V8.76l-.8-1,1.47-1.44L137.25,4.6l-.7.69,1,1-.58.42-1.45-1-1,1.46.29.21-.08.54-1.27-.33-1.07,1A1.27,1.27,0,0,0,130,8.12a1.3,1.3,0,0,0,.58,1.72,1.26,1.26,0,0,0,1.24-.06l.6.61-.11.76-.45.32.29,1.2,1.19-.3,1.77,1.14.29-.41.35,1,.45-.13.26.6a.76.76,0,0,0,.34,1.43.74.74,0,0,0,.41-.12l.36.92.78-.25.37-.73.92.16-.36.59-.09,1.06.73.34.13.67.6.1.17.27.42-.15.31.75.28.7.76-.24.92.64.11,1.26,1.76,1.26.58,1.64a15.49,15.49,0,0,1,2.55,5.08c2.23,7.19-2.26,15.52-9.84,17.61a14.17,14.17,0,0,1-16-20.8h0l-9.39-5.58a25.68,25.68,0,0,0-3.07,8.08h0a23.71,23.71,0,0,0,.46,11.16,25.11,25.11,0,0,0,49-10.77ZM137.85,3.19l-2.32-.91.38,2.48ZM127.19,9l2,.05.06-2-2-.05ZM123.6,2.73l.27-1.89L122.17,0l-1.32,1.37.88,1.69Zm11.08,11.45-1.15.12-.24,1.15,1,.59.86-.78ZM126.61,3.54A1.27,1.27,0,0,0,128.33,3a1.3,1.3,0,0,0-.58-1.73,1.28,1.28,0,0,0-1.72.59A1.3,1.3,0,0,0,126.61,3.54Zm2.78,9.09,1.51-.75-.73-1.53-1.53.76ZM125,12.24l2.32-1.09-2.1-1.47Zm-5.91-5.92.27-2.41-2.4-.27-.27,2.41ZM116.68.59l-4-.29,1.71,3.59Zm14,5.36-1.12-2.6-1.68,2.28ZM132.87.29l-2.16,1.59L133.15,3ZM123,8l-.84.43.33.66-.65.34.43.85.65-.34.34.66.84-.44-.34-.66.66-.34L124,8.29l-.65.33Zm9.75-4-.3.79-.78-.3-.38,1,.78.3-.3.79,1,.39.3-.79.78.3.38-1-.78-.31.3-.79Zm-7.4,3.34,1,.16.39-2.39-2.38-.39-.15,1,1.41.23Zm-1.81-2.87-1-.18-.27,1.43-1.43-.27-.18,1,2.4.45Z" fill="#fff"/></svg>