<svg xmlns="http://www.w3.org/2000/svg" viewBox="0 0 888.84 107.39"><path d="M137.66,67.8h27.18v7.15H146.16v8.94h16.19V90.5H146.16v16h-8.5Z" fill="#fff"/><path d="M181.47,77.71c8.83,0,14.51,5.85,14.51,14.78s-5.69,14.73-14.51,14.73S167,101.37,167,92.49,172.7,77.71,181.47,77.71Zm0,23.72c5.25,0,6.82-4.49,6.82-8.94s-1.57-9-6.82-9-6.77,4.49-6.77,9S176.27,101.43,181.47,101.43Z" fill="#fff"/><path d="M200.85,78.47h7.31v3.9h.16a10,10,0,0,1,8.56-4.66c8.18,0,10.23,4.6,10.23,11.54v17.22h-7.69V90.65c0-4.6-1.35-6.88-4.93-6.88-4.17,0-6,2.33-6,8v14.68H200.8Z" fill="#fff"/><path d="M252.95,102.89h-.11c-1.79,3-4.93,4.33-8.5,4.33-8.45,0-12.56-7.26-12.56-15,0-7.53,4.17-14.51,12.4-14.51a9.79,9.79,0,0,1,8.34,4.17h0V67.8h7.69v38.67h-7.31ZM246.24,83.5c-5,0-6.77,4.33-6.77,8.93,0,4.39,2,9,6.77,9,5.09,0,6.61-4.44,6.61-9s-1.63-8.93-6.61-8.93Z" fill="#fff"/><path d="M272,97.37c0,3.36,2.87,4.71,5.9,4.71,2.22,0,5-.87,5-3.57,0-2.33-3.2-3.14-8.72-4.33-4.44-1-8.88-2.54-8.88-7.47,0-7.15,6.17-9,12.18-9s11.75,2.06,12.35,8.94h-7.31c-.22-3-2.49-3.79-5.25-3.79-1.73,0-4.28.32-4.28,2.6,0,2.76,4.33,3.14,8.72,4.17s8.88,2.65,8.88,7.85c0,7.37-6.39,9.75-12.78,9.75s-12.83-2.44-13.16-9.86Z" fill="#fff"/><path d="M329.09,102.89H329c-1.79,3-4.93,4.33-8.5,4.33-8.45,0-12.56-7.26-12.56-15,0-7.53,4.17-14.51,12.4-14.51a9.79,9.79,0,0,1,8.34,4.17h0V67.8h7.69v38.67h-7.31ZM322.37,83.5c-5,0-6.77,4.33-6.77,8.93,0,4.39,2,9,6.77,9,5.09,0,6.61-4.44,6.61-9s-1.62-8.93-6.6-8.93Z" fill="#fff"/><path d="M348.26,94.33c.22,4.87,2.6,7.09,6.88,7.09,3.09,0,5.58-1.89,6.07-3.63H368c-2.17,6.61-6.77,9.42-13.1,9.42-8.83,0-14.3-6.07-14.3-14.73,0-8.39,5.79-14.78,14.3-14.78,9.53,0,14.13,8,13.59,16.63Zm12.51-4.87c-.7-3.9-2.38-6-6.12-6a6.06,6.06,0,0,0-6.38,5.72q0,.14,0,.28Z" fill="#fff"/><path d="M379,97.37c0,3.36,2.87,4.71,5.9,4.71,2.22,0,5-.87,5-3.57,0-2.33-3.2-3.14-8.72-4.33-4.44-1-8.88-2.54-8.88-7.47,0-7.15,6.17-9,12.18-9s11.75,2.06,12.35,8.94h-7.31c-.22-3-2.49-3.79-5.25-3.79-1.73,0-4.28.32-4.28,2.6,0,2.76,4.33,3.14,8.72,4.17s8.88,2.65,8.88,7.85c0,7.37-6.39,9.75-12.78,9.75s-12.83-2.44-13.16-9.86Z" fill="#fff"/><path d="M417.36,78.47h7.26v3.79h.11a10.11,10.11,0,0,1,8.56-4.55c3.52,0,6.66,1.3,8.18,4.66a10.17,10.17,0,0,1,8.45-4.66c6,0,10.23,2.76,10.23,10v18.74h-7.69V90.59c0-3.74-.33-6.82-4.71-6.82s-5.14,3.57-5.14,7.09v15.6h-7.69V90.76c0-3.25.22-7-4.66-7-1.52,0-5.2,1-5.2,6.45v16.25h-7.69Z" fill="#fff"/><path d="M472,94.33c.22,4.87,2.6,7.09,6.88,7.09,3.09,0,5.58-1.89,6.07-3.63h6.77c-2.17,6.61-6.77,9.42-13.1,9.42-8.83,0-14.3-6.07-14.3-14.73,0-8.39,5.79-14.78,14.3-14.78,9.53,0,14.13,8,13.59,16.63Zm12.51-4.87c-.71-3.9-2.38-6-6.12-6A6.06,6.06,0,0,0,472,89.18q0,.14,0,.28ZM479.62,75h-5.36l5.2-7.69H488Z" fill="#fff"/><path d="M517.27,102.89h-.11c-1.79,3-4.93,4.33-8.5,4.33-8.45,0-12.56-7.26-12.56-15,0-7.53,4.17-14.51,12.4-14.51a9.8,9.8,0,0,1,8.34,4.17h0V67.8h7.69v38.67h-7.31ZM510.55,83.5c-5,0-6.77,4.33-6.77,8.93,0,4.39,2,9,6.77,9,5.09,0,6.61-4.44,6.61-9s-1.62-8.93-6.6-8.93Z" fill="#fff"/><path d="M538,74.13h-7.69V67.79H538Zm-7.69,4.33H538v28h-7.69Z" fill="#fff"/><path d="M543.59,87.08c.43-7.2,6.88-9.37,13.16-9.37,5.58,0,12.29,1.25,12.29,8v14.57c0,2.54.27,5.09,1,6.23h-7.8a11.44,11.44,0,0,1-.54-2.71c-2.44,2.54-6,3.47-9.42,3.47-5.31,0-9.53-2.65-9.53-8.39,0-6.34,4.77-7.85,9.53-8.5s9.1-.54,9.1-3.68c0-3.3-2.28-3.79-5-3.79-2.92,0-4.82,1.19-5.09,4.22Zm17.76,5.69c-1.3,1.14-4,1.19-6.39,1.63s-4.55,1.3-4.55,4.12,2.22,3.57,4.71,3.57c6,0,6.23-4.77,6.23-6.44Z" fill="#fff"/><path d="M581,97.37c0,3.36,2.87,4.71,5.9,4.71,2.22,0,5-.87,5-3.57,0-2.33-3.2-3.14-8.72-4.33-4.44-1-8.88-2.54-8.88-7.47,0-7.15,6.17-9,12.18-9s11.75,2.06,12.35,8.94h-7.31c-.22-3-2.49-3.79-5.25-3.79-1.73,0-4.28.32-4.28,2.6,0,2.76,4.33,3.14,8.72,4.17s8.88,2.65,8.88,7.85c0,7.37-6.39,9.75-12.78,9.75s-12.83-2.44-13.16-9.86Z" fill="#fff"/><path d="M638.85,102.89h-.11c-1.79,3-4.93,4.33-8.5,4.33-8.45,0-12.56-7.26-12.56-15,0-7.53,4.17-14.51,12.4-14.51a9.8,9.8,0,0,1,8.34,4.17h0V67.8h7.69v38.67h-7.31ZM632.13,83.5c-5,0-6.77,4.33-6.77,8.93,0,4.39,2,9,6.77,9,5.09,0,6.61-4.44,6.61-9s-1.63-8.93-6.61-8.93Z" fill="#fff"/><path d="M678.22,106.47h-7.31v-3.88h-.16a10,10,0,0,1-8.56,4.66c-8.18,0-10.24-4.6-10.24-11.54V78.47h7.69V94.28c0,4.6,1.35,6.88,4.93,6.88,4.17,0,6-2.33,6-8V78.47h7.69Z" fill="#fff"/><path d="M721.81,80.8C721.27,77,717.59,74,713.36,74c-7.63,0-10.51,6.5-10.51,13.27,0,6.44,2.87,12.94,10.51,12.94,5.2,0,8.12-3.57,8.77-8.66h8.23c-.87,9.64-7.53,15.81-17,15.81-12,0-19-8.94-19-20.09,0-11.48,7-20.41,19-20.41,8.5,0,15.65,5,16.68,13.92Z" fill="#fff"/><path d="M735,87.08c.43-7.2,6.88-9.37,13.16-9.37,5.58,0,12.29,1.25,12.29,8v14.57c0,2.54.27,5.09,1,6.23h-7.8a11.44,11.44,0,0,1-.54-2.71c-2.44,2.54-6,3.47-9.42,3.47-5.31,0-9.53-2.65-9.53-8.39,0-6.34,4.76-7.85,9.53-8.5s9.1-.54,9.1-3.68c0-3.3-2.27-3.79-5-3.79-2.93,0-4.82,1.19-5.09,4.22Zm17.76,5.69c-1.3,1.14-4,1.19-6.39,1.63s-4.55,1.3-4.55,4.12,2.22,3.57,4.71,3.57c6,0,6.23-4.77,6.23-6.44Z" fill="#fff"/><path d="M766.43,78.47h7.31v3.9h.16a10,10,0,0,1,8.56-4.66c8.18,0,10.23,4.6,10.23,11.54v17.22H785V90.65c0-4.6-1.35-6.88-4.93-6.88-4.17,0-6,2.33-6,8v14.68h-7.69Z" fill="#fff"/><path d="M798.22,87.08c.43-7.2,6.88-9.37,13.16-9.37,5.58,0,12.29,1.25,12.29,8v14.57c0,2.54.27,5.09,1,6.23h-7.8a11.44,11.44,0,0,1-.54-2.71c-2.44,2.54-6,3.47-9.42,3.47-5.31,0-9.53-2.65-9.53-8.39,0-6.34,4.77-7.85,9.53-8.5s9.1-.54,9.1-3.68c0-3.3-2.28-3.79-5-3.79-2.92,0-4.82,1.19-5.09,4.22ZM816,92.77c-1.3,1.14-4,1.19-6.39,1.63S805,95.7,805,98.52s2.22,3.57,4.71,3.57c6,0,6.23-4.77,6.23-6.44Z" fill="#fff"/><path d="M849.61,102.89h-.11c-1.79,3-4.93,4.33-8.5,4.33-8.45,0-12.56-7.26-12.56-15,0-7.53,4.17-14.51,12.4-14.51a9.79,9.79,0,0,1,8.34,4.17h.05V67.8h7.69v38.67h-7.31ZM842.9,83.5c-5,0-6.77,4.33-6.77,8.93,0,4.39,2,9,6.77,9,5.09,0,6.61-4.44,6.61-9s-1.63-8.93-6.61-8.93Z" fill="#fff"/><path d="M862.39,87.08c.43-7.2,6.88-9.37,13.16-9.37,5.58,0,12.29,1.25,12.29,8v14.57c0,2.54.27,5.09,1,6.23H881a11.43,11.43,0,0,1-.54-2.71c-2.44,2.54-6,3.47-9.42,3.47-5.31,0-9.53-2.65-9.53-8.39,0-6.34,4.77-7.85,9.53-8.5s9.1-.54,9.1-3.68c0-3.3-2.28-3.79-5-3.79-2.92,0-4.82,1.19-5.09,4.22Zm17.76,5.69c-1.3,1.14-4,1.19-6.39,1.63s-4.55,1.3-4.55,4.12,2.22,3.57,4.71,3.57c6,0,6.23-4.77,6.23-6.44Z" fill="#fff"/><path d="M162.14,13.92c-.54-3.84-4.22-6.77-8.45-6.77-7.64,0-10.51,6.5-10.51,13.27,0,6.44,2.87,12.94,10.51,12.94,5.2,0,8.12-3.57,8.77-8.66h8.23c-.87,9.64-7.53,15.81-17,15.81-12,0-19-8.94-19-20.09,0-11.48,7-20.42,19-20.42,8.5,0,15.65,5,16.68,13.92Z" fill="#fff"/><path d="M175.35,20.2c.43-7.2,6.88-9.37,13.16-9.37,5.58,0,12.29,1.25,12.29,8V33.4c0,2.54.27,5.09,1,6.23H194a11.46,11.46,0,0,1-.54-2.71c-2.44,2.54-6,3.47-9.42,3.47-5.31,0-9.53-2.65-9.53-8.39,0-6.34,4.77-7.85,9.53-8.5s9.1-.54,9.1-3.68c0-3.3-2.27-3.79-5-3.79-2.92,0-4.82,1.19-5.09,4.22Zm17.76,5.69c-1.3,1.14-4,1.19-6.39,1.62s-4.55,1.3-4.55,4.12,2.22,3.57,4.71,3.57c6,0,6.23-4.77,6.23-6.44Z" fill="#fff"/><path d="M206.76,11.59H214v3.9h.16a10,10,0,0,1,8.56-4.66c8.18,0,10.23,4.6,10.23,11.53V39.59H225.3V23.78c0-4.6-1.35-6.88-4.93-6.88-4.17,0-6,2.33-6,8V39.59h-7.69Z" fill="#fff"/><path d="M238.55,20.2c.43-7.2,6.88-9.37,13.16-9.37,5.58,0,12.29,1.25,12.29,8V33.4c0,2.54.27,5.09,1,6.23h-7.8a11.45,11.45,0,0,1-.54-2.71c-2.44,2.54-6,3.47-9.42,3.47-5.31,0-9.53-2.65-9.53-8.39,0-6.34,4.77-7.85,9.53-8.5s9.1-.54,9.1-3.68c0-3.3-2.27-3.79-5-3.79-2.92,0-4.82,1.19-5.09,4.22Zm17.76,5.69c-1.3,1.14-4,1.19-6.39,1.62s-4.55,1.3-4.55,4.12,2.22,3.57,4.71,3.57c6,0,6.23-4.77,6.23-6.44Z" fill="#fff"/><path d="M289.67,36h-.11c-1.79,3-4.93,4.33-8.5,4.33-8.45,0-12.56-7.26-12.56-15,0-7.53,4.17-14.51,12.4-14.51A9.79,9.79,0,0,1,289.24,15h0V.92H297V39.59h-7.31Zm-6.72-19.43c-5,0-6.77,4.33-6.77,8.94,0,4.39,2,9,6.77,9,5.09,0,6.61-4.44,6.61-9S287.93,16.59,282.95,16.59Z" fill="#fff"/><path d="M302.45,20.2c.43-7.2,6.88-9.37,13.16-9.37,5.58,0,12.29,1.25,12.29,8V33.4c0,2.54.27,5.09,1,6.23H321a11.46,11.46,0,0,1-.54-2.71c-2.44,2.54-6,3.47-9.42,3.47-5.31,0-9.53-2.65-9.53-8.39,0-6.34,4.77-7.85,9.53-8.5s9.1-.54,9.1-3.68c0-3.3-2.27-3.79-5-3.79-2.92,0-4.82,1.19-5.09,4.22Zm17.76,5.69c-1.3,1.14-4,1.19-6.39,1.62s-4.55,1.3-4.55,4.12,2.22,3.57,4.71,3.57c6,0,6.23-4.77,6.23-6.44Z" fill="#fff"/><path d="M349.72.92h12l9,26.59h.11L379.39.92h12V39.59h-8V12.19h-.11l-9.46,27.4h-6.55l-9.48-27.13h-.11V39.59h-8Z" fill="#fff"/><path d="M403.61,27.46c.22,4.87,2.6,7.09,6.88,7.09,3.09,0,5.58-1.9,6.07-3.63h6.77c-2.17,6.61-6.77,9.42-13.1,9.42-8.83,0-14.3-6.07-14.3-14.73,0-8.39,5.79-14.78,14.3-14.78,9.53,0,14.13,8,13.59,16.63Zm12.51-4.87c-.7-3.9-2.38-6-6.12-6a6.06,6.06,0,0,0-6.38,5.72q0,.14,0,.28Z" fill="#fff"/><path d="M448.88,36h-.11c-1.79,3-4.93,4.33-8.5,4.33-8.45,0-12.56-7.26-12.56-15,0-7.53,4.17-14.51,12.4-14.51A9.79,9.79,0,0,1,448.45,15h0V.92h7.69V39.59h-7.31Zm-6.72-19.43c-5,0-6.77,4.33-6.77,8.94,0,4.39,2,9,6.77,9,5.09,0,6.61-4.44,6.61-9S447.15,16.59,442.16,16.59Z" fill="#fff"/><path d="M469.89,7.26H462.2V.92h7.69Zm-7.69,4.33h7.69v28H462.2Z" fill="#fff"/><path d="M475.63,20.2c.43-7.2,6.88-9.37,13.16-9.37,5.58,0,12.29,1.25,12.29,8V33.4c0,2.54.27,5.09,1,6.23h-7.8a11.43,11.43,0,0,1-.54-2.71c-2.44,2.54-6,3.47-9.42,3.47-5.31,0-9.53-2.65-9.53-8.39,0-6.34,4.76-7.85,9.53-8.5s9.1-.54,9.1-3.68c0-3.3-2.27-3.79-5-3.79-2.92,0-4.82,1.19-5.09,4.22Zm17.76,5.69c-1.3,1.14-4,1.19-6.39,1.62s-4.55,1.3-4.55,4.12,2.22,3.57,4.71,3.57c6,0,6.23-4.77,6.23-6.44Z" fill="#fff"/><path d="M522.91.92H550.1V8.07H531.41V17H547.6v6.58H531.41v16h-8.5Z" fill="#fff"/><path d="M579.82,39.59h-7.31v-3.9h-.16a10,10,0,0,1-8.56,4.66c-8.18,0-10.24-4.6-10.24-11.53V11.59h7.69V27.4c0,4.6,1.35,6.88,4.93,6.88,4.17,0,6-2.33,6-8V11.59h7.69Z" fill="#fff"/><path d="M585.67,11.59H593v3.9h.16a10,10,0,0,1,8.56-4.66c8.18,0,10.23,4.6,10.23,11.53V39.59h-7.69V23.78c0-4.6-1.35-6.88-4.93-6.88-4.17,0-6,2.33-6,8V39.59h-7.69Z" fill="#fff"/><path d="M637,36h-.11c-1.79,3-4.93,4.33-8.5,4.33-8.45,0-12.56-7.26-12.56-15,0-7.53,4.17-14.51,12.4-14.51A9.79,9.79,0,0,1,636.53,15h0V.92h7.69V39.59H637Zm-6.72-19.43c-5,0-6.77,4.33-6.77,8.94,0,4.39,2,9,6.77,9,5.09,0,6.61-4.44,6.61-9S635.22,16.59,630.24,16.59Z" fill="#fff"/><rect y="94.72" width="11.77" height="11.76" fill="#f15d22"/><rect x="23.54" y="94.73" width="11.77" height="11.76" fill="#f15d22"/><rect x="47.07" y="94.73" width="11.77" height="11.76" fill="#f15d22"/><rect x="70.61" y="94.73" width="11.77" height="11.76" fill="#f15d22"/><rect x="11.77" y="94.72" width="11.77" height="11.76" fill="#e63625"/><rect x="35.31" y="94.72" width="11.77" height="11.76" fill="#e63625"/><rect x="58.84" y="94.72" width="11.77" height="11.76" fill="#e63625"/><rect x="82.37" y="94.72" width="11.77" height="11.76" fill="#e63625"/><rect x="94.14" y="94.73" width="11.76" height="11.76" fill="#f15d22"/><rect y="82.96" width="11.77" height="11.76" fill="#f37121"/><rect x="11.77" y="82.96" width="11.77" height="11.76" fill="#f15d22"/><rect x="23.54" y="82.96" width="11.77" height="11.76" fill="#f37121"/><rect x="35.31" y="82.96" width="11.77" height="11.76" fill="#f15d22"/><rect x="47.07" y="82.96" width="11.77" height="11.76" fill="#f37121"/><rect x="58.84" y="82.96" width="11.77" height="11.76" fill="#f15d22"/><rect x="70.61" y="82.96" width="11.77" height="11.76" fill="#f37121"/><rect x="82.37" y="82.96" width="11.77" height="11.76" fill="#f15d22"/><rect x="94.14" y="82.96" width="11.76" height="11.76" fill="#f37121"/><rect y="71.19" width="11.77" height="11.76" fill="#f15d22"/><rect x="11.77" y="71.19" width="11.77" height="11.76" fill="#f5893a"/><rect x="23.54" y="71.19" width="11.77" height="11.76" fill="#f26822"/><rect x="35.31" y="71.19" width="11.77" height="11.76" fill="#f49c3b"/><rect x="47.07" y="71.19" width="11.77" height="11.76" fill="#f15d22"/><rect x="58.84" y="71.19" width="11.77" height="11.76" fill="#f37121"/><rect x="70.61" y="71.19" width="11.77" height="11.76" fill="#f49c3b"/><rect x="82.37" y="71.19" width="11.77" height="11.76" fill="#f37121"/><rect x="94.14" y="71.19" width="11.76" height="11.76" fill="#f26822"/><rect y="59.43" width="11.77" height="11.77" fill="#f49c3b"/><rect x="11.77" y="59.43" width="11.77" height="11.77" fill="#fcc06f"/><rect x="23.54" y="59.43" width="11.77" height="11.77" fill="#f68d3e"/><rect x="35.31" y="59.43" width="11.77" height="11.77" fill="#f58120"/><rect x="47.07" y="59.43" width="11.76" height="11.77" fill="#ef9360"/><rect x="58.84" y="59.43" width="11.77" height="11.77" fill="#ffd699"/><rect x="70.61" y="59.43" width="11.77" height="11.77" fill="#f5893a"/><rect x="82.37" y="59.43" width="11.77" height="11.77" fill="#f26822"/><rect x="94.14" y="59.43" width="11.76" height="11.77" fill="#faaa48"/><rect y="47.66" width="11.77" height="11.77" fill="#ffd699"/><rect x="11.77" y="47.66" width="11.77" height="11.77" fill="#faaa48"/><rect x="23.54" y="47.66" width="11.77" height="11.77" fill="#f57e2d"/><rect x="35.31" y="47.66" width="11.77" height="11.77" fill="#ffd699"/><rect x="47.07" y="47.66" width="11.76" height="11.77" fill="#f8b964"/><rect x="58.84" y="47.66" width="11.77" height="11.77" fill="#f7922d"/><rect x="70.61" y="47.66" width="11.77" height="11.77" fill="#f9cc98"/><rect x="82.37" y="47.66" width="11.77" height="11.77" fill="#f8b367"/><rect x="94.14" y="47.66" width="11.76" height="11.77" fill="#f5893a"/><rect y="35.89" width="11.77" height="11.76" fill="#faaa48"/><rect x="11.77" y="35.89" width="11.77" height="11.76" fill="#f57f2e"/><rect x="23.54" y="35.89" width="11.77" height="11.76" fill="#faaa48"/><rect x="35.31" y="35.89" width="11.77" height="11.76" fill="#f57f2e"/><rect x="47.07" y="35.89" width="11.77" height="11.76" fill="#faaa48"/><rect x="58.84" y="35.89" width="11.77" height="11.76" fill="#f57f2e"/><rect x="70.61" y="35.89" width="11.77" height="11.76" fill="#faaa48"/><rect x="82.37" y="35.89" width="11.77" height="11.76" fill="#f57f2e"/><rect x="94.14" y="35.89" width="11.76" height="11.76" fill="#faaa48"/><rect y="24.13" width="11.77" height="11.77" fill="#ffd699"/><rect x="11.77" y="24.13" width="11.77" height="11.77" fill="#faaa48"/><rect x="23.54" y="24.13" width="11.77" height="11.77" fill="#ffd699"/><rect x="35.31" y="24.13" width="11.77" height="11.77" fill="#faaa48"/><rect x="47.07" y="24.13" width="11.77" height="11.77" fill="#ffd699"/><rect x="58.84" y="24.13" width="11.77" height="11.77" fill="#faaa48"/><rect x="70.61" y="24.13" width="11.77" height="11.77" fill="#ffd699"/><rect x="82.37" y="24.13" width="11.77" height="11.77" fill="#faaa48"/><rect x="94.14" y="24.13" width="11.76" height="11.77" fill="#ffd699"/><rect y="12.36" width="11.77" height="11.76" fill="#fbe2bb"/><rect x="11.77" y="12.36" width="11.77" height="11.76" fill="#fcc988"/><rect x="23.54" y="12.36" width="11.77" height="11.76" fill="#fbe2bb"/><rect x="35.31" y="12.36" width="11.77" height="11.76" fill="#fcc988"/><rect x="47.07" y="12.36" width="11.77" height="11.76" fill="#fbe2bb"/><rect x="58.84" y="12.36" width="11.77" height="11.76" fill="#fcc988"/><rect x="70.61" y="12.36" width="11.77" height="11.76" fill="#fbe2bb"/><rect x="82.37" y="12.36" width="11.77" height="11.76" fill="#fcc988"/><rect x="94.14" y="12.36" width="11.76" height="11.76" fill="#fbe2bb"/><rect y="0.59" width="11.77" height="11.77" fill="#fbebdd"/><rect x="11.77" y="0.59" width="11.77" height="11.77" fill="#f7e1c7"/><rect x="23.54" y="0.59" width="11.77" height="11.77" fill="#fbebdd"/><rect x="35.31" y="0.59" width="11.77" height="11.77" fill="#f7e1c7"/><rect x="47.07" y="0.59" width="11.77" height="11.77" fill="#fbebdd"/><rect x="58.84" y="0.59" width="11.77" height="11.77" fill="#f7e1c7"/><rect x="70.61" y="0.59" width="11.77" height="11.77" fill="#fbebdd"/><rect x="82.37" y="0.59" width="11.77" height="11.77" fill="#f7e1c7"/><rect x="94.14" y="0.59" width="11.76" height="11.77" fill="#fbebdd"/></svg>