<svg xmlns="http://www.w3.org/2000/svg" viewBox="0 0 127 50"><title>Little Lords of Twilight</title><path d="M58.9,12.87l2,1.42-.35.26H58.21V12.87h.69m.06-.19H58v2.06h2.56l.62-.45L59,12.68Z" fill="#fff"/><path d="M62.12,47.45A.1.1,0,0,1,62,47.4l-2-3.83a.1.1,0,0,1,0-.13l1.71-.88v-7.1L60,33.93a.1.1,0,0,1,0-.14l6.51-6a.1.1,0,0,1,.16.07V42.51h2.4l3-2.19a.1.1,0,0,1,.15.08v5.35a.1.1,0,0,1,0,.06l-1.12,1.58a.1.1,0,0,1-.08,0H62.12Zm-1.87-3.88,1.93,3.69H71l1.08-1.52V40.59l-2.91,2.1-.06,0H66.57a.1.1,0,0,1-.1-.1V28.08L60.2,33.85l1.74,1.49a.1.1,0,0,1,0,.07v7.21a.1.1,0,0,1-.05.09Z" fill="#fff"/><polygon points="69.28 43.18 66 43.18 66 29.17 60.92 33.84 62.46 35.15 62.46 42.97 60.89 43.77 62.46 46.78 70.73 46.76 71.58 45.57 71.58 41.52 69.28 43.18" fill="#fff"/><polygon points="58.17 33 59.46 30.54 53.34 30.54 54.63 33 54.63 44.34 53.34 46.8 59.46 46.8 58.17 44.34 58.17 33" fill="#fff"/><path d="M80.37,47.47h-8a.1.1,0,0,1-.08-.14l1.66-3.15v-11L72.26,30a.1.1,0,0,1,.08-.14h8a.1.1,0,0,1,.08.14L78.8,33.16v11l1.66,3.15a.1.1,0,0,1-.08.14Zm-7.87-.19h7.71l-1.59-3a.1.1,0,0,1,0,0V33.14a.1.1,0,0,1,0,0l1.59-3H72.5l1.59,3a.1.1,0,0,1,0,0V44.2a.1.1,0,0,1,0,0Z" fill="#fff"/><polygon points="78.13 33 79.42 30.54 73.29 30.54 74.58 33 74.58 44.34 73.29 46.8 79.42 46.8 78.13 44.34 78.13 33" fill="#fff"/><path d="M116.8,47.47h-8a.1.1,0,0,1-.08-.14l1.66-3.15V34.82h-.45l-2.13,1.81a.1.1,0,0,1-.16-.07V30a.1.1,0,0,1,.1-.1h10.17a.1.1,0,0,1,.1.1v6.6a.1.1,0,0,1-.16.07l-2.13-1.81h-.45v9.36l1.66,3.15a.1.1,0,0,1-.08.14Zm-7.87-.19h7.71l-1.59-3a.1.1,0,0,1,0,0V34.72a.1.1,0,0,1,.1-.1h.58l.06,0,2,1.7v-6.3h-10v6.3l2-1.7.06,0h.58a.1.1,0,0,1,.1.1V44.2a.1.1,0,0,1,0,0Z" fill="#fff"/><polygon points="108.28 30.54 108.28 35.32 109.65 34.15 111.02 34.15 111.02 44.34 109.73 46.8 115.85 46.8 114.56 44.34 114.56 34.15 115.93 34.15 117.3 35.32 117.3 30.54 108.28 30.54" fill="#fff"/><path d="M33.68,49.58H24.27a.1.1,0,0,1-.08-.14l1.95-3.71V27.31H23l-2.44,2.08a.1.1,0,0,1-.16-.07V21.64a.1.1,0,0,1,.1-.1H37.41a.1.1,0,0,1,.1.1v7.68a.1.1,0,0,1-.16.07l-2.44-2.08H31.82V45.73l1.95,3.71a.1.1,0,0,1-.08.14Zm-9.26-.19h9.1L31.64,45.8a.1.1,0,0,1,0,0V27.22a.1.1,0,0,1,.1-.1h3.22l.06,0,2.31,2V21.73H20.64v7.38l2.31-2,.06,0h3.22a.1.1,0,0,1,.1.1V45.75a.1.1,0,0,1,0,0Z" fill="#fff"/><polygon points="21.12 22.21 21.12 28.08 22.8 26.64 26.8 26.64 26.8 45.9 25.22 48.91 32.73 48.91 31.15 45.9 31.15 26.64 35.15 26.64 36.83 28.08 36.83 22.21 21.12 22.21" fill="#fff"/><polygon points="15.85 37.02 16.62 38.48 16.63 41.96 16.63 45.3 15.85 46.78 19.52 46.78 18.75 45.3 18.75 42.69 19.77 42.69 20.73 43.38 20.73 41.2 18.75 41.2 18.75 39.19 21.35 39.19 22.17 39.88 22.17 37.02 15.85 37.02" fill="#fff"/><path d="M12.53,48.7l-.06,0L9,45.5a.1.1,0,0,1,0-.07v-7a.1.1,0,0,1,0-.07l3.5-3.19a.1.1,0,0,1,.13,0l3,2.74-.77-1.46a.1.1,0,0,1,.08-.14h7.84a.1.1,0,0,1,.1.1v4.69a.1.1,0,0,1-.16.07L21.1,39.85H19.42v.67h1.88a.1.1,0,0,1,.1.1v3.88a.1.1,0,0,1-.15.08l-1.69-1.22h-.13v1.78l1.14,2.17a.1.1,0,0,1-.08.14H14.9a.1.1,0,0,1-.08-.14L15.48,46l-2.89,2.63Zm-3.4-3.32,3.4,3.09,3.22-2.94a.1.1,0,0,1,.15.12l-.84,1.61h5.26L19.24,45.2a.1.1,0,0,1,0,0V43.27a.1.1,0,0,1,.1-.1h.26l.06,0,1.57,1.13v-3.6H19.33a.1.1,0,0,1-.1-.1v-.86a.1.1,0,0,1,.1-.1h1.81l.06,0,1.45,1.24V36.54H15.06L16,38.34a.1.1,0,0,1-.15.11l-3.33-3-3.4,3.1Z" fill="#fff"/><path d="M12.53,36.06,9.6,38.72v6.45l2.92,2.66,2.91-2.66V38.72Zm.82,8.44-.82.74-.84-.74V39.4l.84-.74.82.74Z" fill="#fff"/><path d="M86.23,50l-.06,0-5.45-5a.1.1,0,0,1,0-.07V33.68a.1.1,0,0,1,0-.07l5.45-5a.1.1,0,0,1,.13,0L92,33.88A.1.1,0,0,1,92,34l-4.92,4.09a.1.1,0,0,1-.16-.07V35.36l-.7-.63-.72.64v3.27h6.15a.1.1,0,0,1,.1.1v6.21a.1.1,0,0,1,0,.07l-5.42,5Zm-5.35-5.1,5.35,4.88,5.32-4.88V38.83H85.4a.1.1,0,0,1-.1-.1V35.32a.1.1,0,0,1,0-.07l.82-.72a.1.1,0,0,1,.13,0l.8.72a.1.1,0,0,1,0,.07v2.53L91.8,34l-5.57-5.1-5.35,4.88Z" fill="#fff"/><polygon points="91.07 33.93 86.23 29.49 81.35 33.93 81.35 44.69 86.23 49.13 91.07 44.69 91.07 39.31 86.21 39.31 86.21 42.95 87.6 41.8 87.6 43.56 86.23 44.79 84.83 43.56 84.83 35.06 86.23 33.83 87.6 35.06 87.6 36.82 91.07 33.93" fill="#fff"/><path d="M60.41,47.47h-8a.1.1,0,0,1-.08-.14L54,44.18v-11l-1.38-2.63-1.83,2.71-1.64,11,1.15,3.07a.1.1,0,0,1-.09.13H35.62a.1.1,0,0,1-.09-.13l1.15-3.07L35,33.24,32.86,30a.1.1,0,0,1,.08-.15h8a.1.1,0,0,1,.09.13l-1.15,3.07.64,4.29,2.25-8.18a.1.1,0,0,1,.18,0l2.25,8.18.64-4.29L44.72,30a.1.1,0,0,1,.09-.13h15.6a.1.1,0,0,1,.08.14l-1.66,3.15v11l1.66,3.15a.1.1,0,0,1-.08.14Zm-7.87-.19h7.71l-1.59-3a.1.1,0,0,1,0,0V33.14a.1.1,0,0,1,0,0l1.59-3H44.95l1.11,3a.1.1,0,0,1,0,0l-.71,4.77a.1.1,0,0,1-.19,0l-2.28-8.28-2.28,8.28a.1.1,0,0,1-.19,0l-.71-4.77a.1.1,0,0,1,0,0l1.11-3H33.12l2.09,3.1,0,0,1.65,11.07a.1.1,0,0,1,0,0l-1.12,3H50l-1.12-3a.1.1,0,0,1,0,0l1.65-11.07,0,0,1.93-2.86a.1.1,0,0,1,.16,0l1.47,2.79a.1.1,0,0,1,0,0V44.2a.1.1,0,0,1,0,0Z" fill="#fff"/><polygon points="51.76 30.54 45.64 30.54 46.56 33 45.43 40.6 42.89 31.37 40.35 40.6 39.22 33 40.15 30.54 34.02 30.54 35.68 33 37.37 44.34 36.45 46.8 42.57 46.8 41.85 45.73 42.89 41.94 43.94 45.73 43.21 46.8 49.34 46.8 48.41 44.34 50.11 33 51.76 30.54" fill="#fff"/><path d="M107.12,47.47H91.89a.1.1,0,0,1-.08-.14l1.66-3.15v-11L91.81,30a.1.1,0,0,1,.08-.14h15.23a.1.1,0,0,1,.08.14l-1.66,3.15v11l1.66,3.15a.1.1,0,0,1-.08.14Zm-15.07-.19H107l-1.59-3a.1.1,0,0,1,0,0V33.14a.1.1,0,0,1,0,0l1.59-3H92.05l1.59,3a.1.1,0,0,1,0,0V44.2a.1.1,0,0,1,0,0Zm7.45-.59a.1.1,0,0,1-.08-.05l-1.25-2.39a.1.1,0,0,1,0,0V40.64a.1.1,0,0,1,.1-.1h2.51a.1.1,0,0,1,.1.1V44.2a.1.1,0,0,1,0,0l-1.25,2.39A.1.1,0,0,1,99.51,46.69Zm-1.16-2.51,1.16,2.21,1.16-2.21V40.74H98.35Zm2.41-7.08H98.25a.1.1,0,0,1-.1-.1V33.14a.1.1,0,0,1,0,0l1.25-2.39a.1.1,0,0,1,.17,0l1.25,2.39a.1.1,0,0,1,0,0V37a.1.1,0,0,1-.1.1Zm-2.41-.19h2.32V33.16L99.51,31l-1.16,2.21Z" fill="#fff"/><polygon points="104.87 38.67 104.88 33 106.17 30.54 100.04 30.54 101.33 33 101.34 37.58 101.33 37.58 101.33 37.58 97.68 37.58 97.68 33 98.97 30.54 92.84 30.54 94.13 33 94.14 37.58 94.13 44.34 92.84 46.8 98.97 46.8 97.68 44.34 97.67 40.07 101.33 40.07 101.33 44.34 100.04 46.8 106.17 46.8 104.88 44.34 104.87 38.67" fill="#fff"/><path d="M121.22,22l-.06,0-5.77-5.24a.1.1,0,0,1,0-.15l4.22-3.39-3.87-1.67a.1.1,0,0,1-.06-.09l0-5.76a.1.1,0,0,1,0-.07L121.15.66a.1.1,0,0,1,.13,0L127,5.86A.1.1,0,0,1,127,6l-4,3.68,3.68,1.55a.1.1,0,0,1,.06.09v5.63a.1.1,0,0,1,0,.07l-5.41,5Zm-5.62-5.33,5.62,5.11,5.32-4.88V11.38L122.77,9.8a.1.1,0,0,1,0-.16l4-3.71L121.22.86l-5.36,4.86,0,5.65,4,1.71a.1.1,0,0,1,0,.16Zm5.61-.55-.06,0-.82-.72a.1.1,0,0,1,0-.07V13.43a.1.1,0,0,1,.13-.09L122,14a.1.1,0,0,1,.06.09V15.3a.1.1,0,0,1,0,.07l-.79.72Zm-.73-.86.73.64.7-.63V14.19l-1.43-.62ZM122,9.46h0l-1.62-.68a.1.1,0,0,1-.06-.09V7.32a.1.1,0,0,1,0-.07l.82-.72a.1.1,0,0,1,.13,0l.79.72a.1.1,0,0,1,0,.07V9.37a.1.1,0,0,1,0,.08Zm-1.52-.84,1.43.6V7.36l-.7-.63-.73.64Z" fill="#fff"/><polygon points="126.06 11.69 119.81 9.07 119.81 7.06 121.22 5.83 122.58 7.06 122.58 9.14 126.06 5.93 121.22 1.51 116.34 5.93 116.35 11.06 122.58 13.75 122.58 15.56 121.22 16.79 119.81 15.56 119.81 13.89 116.34 16.69 121.22 21.13 126.06 16.69 126.06 11.69" fill="#fff"/><path d="M82.58,21.8l-.06,0-5.45-4.95a.1.1,0,0,1,0-.07V5.49a.1.1,0,0,1,0-.07l5.45-5a.1.1,0,0,1,.13,0l5.42,5a.1.1,0,0,1,0,.07V16.75a.1.1,0,0,1,0,.07l-5.42,4.95Zm-5.35-5.09,5.35,4.86,5.33-4.86V5.54L82.58.66,77.23,5.54Zm5.35-.78-.06,0-.82-.72a.1.1,0,0,1,0-.07v-8a.1.1,0,0,1,0-.07l.82-.72a.1.1,0,0,1,.13,0l.8.72a.1.1,0,0,1,0,.07v8a.1.1,0,0,1,0,.07l-.8.72Zm-.72-.86.72.63.71-.63V7.17l-.71-.63-.72.63Z" fill="#fff"/><path d="M82.58,1.31,77.71,5.75V16.5l4.87,4.43,4.85-4.43V5.75ZM84,15.37,82.58,16.6l-1.39-1.23V6.87l1.39-1.23L84,6.87Z" fill="#fff"/><path d="M111.67,19.58H101.55a.1.1,0,0,1-.08-.14l1.66-3.15v-11l-1.66-3.15a.1.1,0,0,1,.08-.14h10.12l.06,0,3,2.73a.1.1,0,0,1,0,.07v12a.1.1,0,0,1,0,.07l-3,2.73Zm-10-.19h9.92l2.92-2.68V4.84l-2.92-2.68h-9.92l1.59,3a.1.1,0,0,1,0,0V16.31a.1.1,0,0,1,0,0Zm7.67-3.59h-1.47a.1.1,0,0,1-.1-.1V5.86a.1.1,0,0,1,.1-.1h1.47l.06,0,.58.52a.1.1,0,0,1,0,.07v8.8a.1.1,0,0,1,0,.07l-.58.52ZM108,15.6h1.33l.52-.47V6.42L109.34,6H108V15.6Z" fill="#fff"/><path d="M111.44,2.65H102.5l1.29,2.46V16.45l-1.29,2.46h8.94l2.63-2.41V5.05Zm-.91,12.79-.94.84h-2.26v-11h2.26l.94.84Z" fill="#fff"/><path d="M100.31,19.57h-3.9a.1.1,0,0,1-.1-.1V13.24l-.52-.47H94.47v5.11a.1.1,0,0,1,0,.05l-1.09,1.59a.1.1,0,0,1-.08,0H88a.1.1,0,0,1-.08-.14l1.66-3.14v-11L87.93,2.12A.1.1,0,0,1,88,2H98.13l.06,0,3,2.73a.1.1,0,0,1,0,.07V9.55a.1.1,0,0,1,0,.07L99.7,10.79l1.47,1.15a.1.1,0,0,1,0,.08v5.82a.1.1,0,0,1,0,0l-.8,1.64A.1.1,0,0,1,100.31,19.57Zm-3.8-.19h3.74l.76-1.56V12.07l-1.52-1.2a.1.1,0,0,1,0-.15L101,9.5V4.84L98.09,2.17H88.17l1.59,3a.1.1,0,0,1,0,0V16.31a.1.1,0,0,1,0,0l-1.59,3h5.06l1-1.52V12.68a.1.1,0,0,1,.1-.1h1.47l.06,0,.58.52a.1.1,0,0,1,0,.07ZM95.84,9H94.37a.1.1,0,0,1-.1-.1V5.86a.1.1,0,0,1,.1-.1h1.47l.06,0,.58.52a.1.1,0,0,1,0,.07v2a.1.1,0,0,1,0,.07L95.9,9Zm-1.37-.19H95.8l.52-.47v-2L95.8,6H94.47Z" fill="#fff"/><path d="M100.54,5.05,97.91,2.65H89L90.25,5.1V16.45L89,18.9h4l.82-1.19V12.1h2.26l.94.84v6h3l.58-1.19V12.3l-1.91-1.5,1.91-1.52ZM93.8,9V5.28h2.26l.94.84V8.68l-.94.84H93.8Z" fill="#fff"/><path d="M98.77,9.75" fill="#fff"/><path d="M71,28.39a.1.1,0,0,1-.08-.05l-2.32-4.44a.1.1,0,0,1,0-.13l2-1V4.44L68.74.78a.1.1,0,0,1,.08-.14h9.28a.1.1,0,0,1,.08.14L76.27,4.44V22.71h6l3.57-2.93a.1.1,0,0,1,.16.07v7a.1.1,0,0,1,0,.07l-1.75,1.42-.06,0L71,28.39Zm-2.19-4.5,2.25,4.31,13.09,0,1.69-1.37V20.06l-3.44,2.83-.06,0H76.18a.1.1,0,0,1-.1-.1V4.41a.1.1,0,0,1,0,0L78,.83H69l1.86,3.54a.1.1,0,0,1,0,0V22.78a.1.1,0,0,1-.05.09Z" fill="#fff"/><polygon points="82.54 23.38 75.6 23.38 75.6 4.27 77.16 1.31 69.78 1.31 71.33 4.27 71.33 23.13 69.45 24.09 71.34 27.72 83.97 27.7 85.36 26.58 85.36 21.07 82.54 23.38" fill="#fff"/><polygon points="49.09 15.31 45.81 15.31 45.8 1.31 40.73 5.97 42.27 7.28 42.27 15.11 40.7 15.9 42.27 18.91 50.54 18.9 51.39 17.7 51.39 13.66 49.09 15.31" fill="#fff"/><polygon points="15.62 5.1 16.91 2.65 10.79 2.65 12.08 5.1 12.08 16.45 10.79 18.91 16.91 18.91 15.62 16.45 15.62 5.1" fill="#fff"/><polygon points="18.99 2.65 18.99 7.43 20.36 6.26 21.73 6.26 21.73 16.45 20.44 18.91 26.56 18.91 25.27 16.45 25.27 6.26 26.64 6.26 28.01 7.43 28.01 2.65 18.99 2.65" fill="#fff"/><polygon points="29.79 2.65 29.79 7.43 31.16 6.26 32.53 6.26 32.53 16.45 31.24 18.91 37.36 18.91 36.07 16.45 36.07 6.26 37.45 6.26 38.81 7.43 38.81 2.65 29.79 2.65" fill="#fff"/><polygon points="61.91 6.26 63.27 7.43 63.27 2.65 52.75 2.65 54.03 5.09 54.04 16.45 52.75 18.91 63.2 18.9 63.2 13.66 60.9 15.31 57.58 15.31 57.58 12.1 59.28 12.1 60.88 13.26 60.88 9.61 57.58 9.61 57.58 6.26 61.91 6.26" fill="#fff"/><path d="M46.19.44V14.74a.19.19,0,0,0,.19.19h2.53a.19.19,0,0,0,.11,0l2.75-2v4.92l-1,1.45H42l-1.86-3.55,1.59-.82a.19.19,0,0,0,.1-.17V7.55a.19.19,0,0,0-.07-.15L40.15,6l6-5.55M46.38,0,39.87,6l1.83,1.56v7.21l-1.77.9,2,3.83h8.91L52,17.89V12.53l-3.06,2.21H46.38V0Z" fill="#fff"/><path d="M17.55,2.26,16,5.16a.19.19,0,0,0,0,.09V16.31a.19.19,0,0,0,0,.09l1.52,2.89H10.16l1.52-2.89a.19.19,0,0,0,0-.09V5.25a.19.19,0,0,0,0-.09L10.16,2.26h7.39m.32-.19h-8l1.67,3.17V16.31L9.84,19.49h8L16.2,16.31V5.25l1.67-3.17Z" fill="#fff"/><path d="M28.4,2.26v6L26.56,6.69a.19.19,0,0,0-.12,0h-.58a.19.19,0,0,0-.19.19v9.48a.19.19,0,0,0,0,.09l1.52,2.89H19.81l1.52-2.89a.19.19,0,0,0,0-.09V6.83a.19.19,0,0,0-.19-.19h-.58a.19.19,0,0,0-.12,0L18.61,8.26v-6H28.4m.19-.19H18.42v6.6l2.15-1.84h.58v9.48l-1.67,3.17h8l-1.67-3.17V6.83h.58l2.16,1.84V2.07Z" fill="#fff"/><path d="M39.2,2.26v6L37.36,6.69a.19.19,0,0,0-.12,0h-.58a.19.19,0,0,0-.19.19v9.48a.19.19,0,0,0,0,.09L38,19.29H30.61l1.52-2.89a.19.19,0,0,0,0-.09V6.83A.19.19,0,0,0,32,6.64h-.58a.19.19,0,0,0-.12,0L29.41,8.26v-6H39.2m.19-.19H29.22v6.6l2.16-1.84H32v9.48l-1.67,3.17h8l-1.67-3.17V6.83h.58l2.15,1.84V2.07Z" fill="#fff"/><path d="M63.66,2.26v6L61.82,6.69a.19.19,0,0,0-.12,0H58.16a.19.19,0,0,0-.19.19V9a.19.19,0,0,0,.19.19h3.11v5a.19.19,0,0,0,.1.17l.09,0a.19.19,0,0,0,.11,0l2-1.45v6.37H52.11l1.52-2.89a.19.19,0,0,0,0-.09V5.23a.19.19,0,0,0,0-.09L52.11,2.26H63.66m.19-.19H51.8l1.66,3.16V16.31L51.8,19.49h12V12.53l-2.32,1.67V9h-3.3V6.83H61.7l2.15,1.84V2.07Z" fill="#fff"/><path d="M9.12,1.12,7.33,4.52a.19.19,0,0,0,0,.09V23a.19.19,0,0,0,.19.19h6.16a.19.19,0,0,0,.12,0l3.28-2.7V27l-1.63,1.32-13,0L.26,24.12l1.91-1a.19.19,0,0,0,.1-.17V4.6a.19.19,0,0,0,0-.09L.47,1.12H9.12M9.44.93H.15L2.08,4.6V23L0,24l2.32,4.44,13.18,0L17.26,27V20l-3.6,3H7.5V4.6L9.44.93Z" fill="#fff"/><polygon points="13.87 23.58 6.93 23.58 6.93 4.46 8.48 1.5 1.1 1.5 2.66 4.46 2.66 23.32 0.78 24.29 2.67 27.91 15.3 27.89 16.68 26.77 16.68 21.26 13.87 23.58" fill="#fff"/></svg>