<svg id="ELEMENTS" xmlns="http://www.w3.org/2000/svg" viewBox="0 0 130.96 168"><defs><style>.cls-1{fill:#fff;}.cls-2{fill:#95d600;}</style></defs><title>logo_bkom</title><polygon class="cls-1" points="56.14 126.55 48.89 126.55 38.03 137.4 38.03 126.52 32.11 126.52 32.11 153.59 38.03 153.59 38.03 144.23 41.66 140.61 49.86 153.59 57.13 153.59 46.03 136.74 56.14 126.55"/><path class="cls-1" d="M13.13,126a13.08,13.08,0,0,0-7.34,2.12V117.08H0v23.15H0c0.06,8.13,4.62,13.93,13.13,13.93h0.69a4.21,4.21,0,0,0,.71-0.05c7.7-.6,12.08-6.28,12.08-14C26.6,131.93,21.7,126,13.13,126Zm0.18,23.48c-5.1-.1-7.38-4.78-7.41-9.35v-0.76c0.19-4.38,2.23-8.72,7.23-8.72,5.27,0,7.68,4.8,7.68,9.41S18.45,149.42,13.3,149.52Z"/><path class="cls-1" d="M72.21,125.94v4.64c5.26,0,7.58,4.8,7.58,9.45s-2.32,9.39-7.58,9.39-7.59-4.8-7.59-9.39H58.73c0,8.15,4.9,14,13.47,14s13.46-5.88,13.46-14S80.77,125.94,72.21,125.94Z"/><path class="cls-1" d="M119.61,125.82c-4,0-6.68,1.21-8.44,3.29-1.79-2.09-4.5-3.29-8.48-3.29-3.76,0-6.4,1-8.18,2.83H91.29v24.94h5.83V139.12c0-5.23,1.13-8.39,5.58-8.39s5.49,3.32,5.49,8.44v14.41h6V139.18c0-5.12,1.19-8.44,5.48-8.44,4.46,0,5.6,3.16,5.6,8.39v14.47H131V139.12C131,131.31,128.32,125.82,119.61,125.82Z"/><polygon class="cls-2" points="100.49 159.87 101.94 161.31 98.98 168 100.68 168 104.28 159.87 100.49 159.87"/><path class="cls-2" d="M70.52,159.87l-0.66,1.49H66.07L63.13,168H61.42l2.94-6.64h-3.8l0.66-1.49h9.3Z"/><path class="cls-2" d="M82,159.87h1.72l-2.9,6.56A2.94,2.94,0,0,1,78.29,168H72.58a1.06,1.06,0,0,1-1.1-1.57l2.9-6.56h1.7l-2.9,6.56a0.05,0.05,0,0,0,.06.08H79a0.14,0.14,0,0,0,.11-0.08Z"/><path class="cls-2" d="M116,159.87a1.06,1.06,0,0,1,1.1,1.57l-2.21,5a2.94,2.94,0,0,1-2.49,1.57h-5.71a1.06,1.06,0,0,1-1.1-1.57l2.21-5a2.92,2.92,0,0,1,2.49-1.57H116Zm-2.94,6.64a0.14,0.14,0,0,0,.11-0.08l2.21-5a0.05,0.05,0,0,0,0-.08h-5.71a0.14,0.14,0,0,0-.13.08l-2.21,5a0.05,0.05,0,0,0,.06.08h5.71Z"/><path class="cls-2" d="M55.82,161.36"/><path class="cls-2" d="M50,161.44a0.14,0.14,0,0,1,.13-0.08H57.6a1.05,1.05,0,0,0-1.13-1.5H50.76a2.92,2.92,0,0,0-2.49,1.57l-0.74,1.67a1.06,1.06,0,0,0,1.1,1.57h5.71a0.05,0.05,0,0,1,0,.08l-0.74,1.67a0.14,0.14,0,0,1-.11.08H46A1.05,1.05,0,0,0,47.16,168h5.71a2.94,2.94,0,0,0,2.49-1.57l0.74-1.67a1.06,1.06,0,0,0-1.1-1.57H49.29a0.05,0.05,0,0,1-.06-0.08Z"/><path class="cls-2" d="M128.24,161.36"/><path class="cls-2" d="M122.39,161.44a0.14,0.14,0,0,1,.13-0.08H130a1.05,1.05,0,0,0-1.13-1.5h-5.71a2.92,2.92,0,0,0-2.49,1.57l-0.74,1.67a1.06,1.06,0,0,0,1.1,1.57h5.71a0.05,0.05,0,0,1,0,.08l-0.74,1.67a0.14,0.14,0,0,1-.11.08h-7.5a1.05,1.05,0,0,0,1.13,1.49h5.71a2.94,2.94,0,0,0,2.49-1.57l0.74-1.67a1.06,1.06,0,0,0-1.1-1.57h-5.71a0.05,0.05,0,0,1-.06-0.08Z"/><path class="cls-2" d="M95.7,159.87H88.21l-0.66,1.49H95a0.05,0.05,0,0,1,.06.08l-2.21,5a0.14,0.14,0,0,1-.13.08H87.07a0.05,0.05,0,0,1-.06-0.08l1.58-3.57h-1.7L84.61,168H92.1a2.94,2.94,0,0,0,2.5-1.57l2.21-5A1.06,1.06,0,0,0,95.7,159.87Z"/><path class="cls-2" d="M111.74,54.18a43.45,43.45,0,0,0-8.94-20l-2.29-1.8-0.11-2-0.88-.23,0.24-1.09-3.55-.8,0.39-.73-3.74-.92L93,25.42,91.91,25,93.29,24l0.09-2.86-2.2,1a2.72,2.72,0,0,0-3-1.7L89,19.52l-2.88-2.75-0.55.55-0.88,0L83.21,19.5l-1.73.06,0.91-1.23-1.21-2.14,0.94-1-3-2.58-1.28.29,0.58,1.22a1.2,1.2,0,0,0-1.3,1,1.21,1.21,0,0,0,.76,1.28l-0.72.36L75,15.85V14.08H72.26v2l-1.48-1.8,2.71-2.64-3.1-3.18L69.1,9.69,71,11.58l-1.07.76-2.67-1.92L65.34,13.1l0.54,0.39-0.15,1-2.34-.6-2,1.86a2.35,2.35,0,0,0-1.3-1.94A2.36,2.36,0,0,0,58,18a2.34,2.34,0,0,0,2.28-.11L61.4,19l-0.21,1.39L60.36,21l0.54,2.2,2.2-.54,3.27,2.08L66.9,24l0.64,1.77,0.83-.23,0.48,1.1A1.38,1.38,0,1,0,70.24,29l0.67,1.69,1.45-.46L73,28.89l1.7,0.3L74.1,30.27l-0.16,1.94,1.35,0.62,0.23,1.22,1.1,0.18,0.32,0.49,0.78-.28,0.57,1.37,0.52,1.29,1.39-.43,1.7,1.17,0.2,2.31,3.25,2.3,1.07,3h0a28.3,28.3,0,0,1,4.7,9.3C95.23,67.92,86.95,83.18,73,87A26.25,26.25,0,0,1,40.72,68.6a25.82,25.82,0,0,1,2.69-19.69v0L26.09,38.67a46.79,46.79,0,0,0-5.66,14.8h0a43.11,43.11,0,0,0,.85,20.44,46.51,46.51,0,0,0,57,32.52C101.22,100.15,115.66,78.59,111.74,54.18ZM66.52,20.37h0Z"/><polygon class="cls-2" points="71.49 5.83 67.21 4.17 67.91 8.7 71.49 5.83"/><polygon class="cls-2" points="51.82 16.51 55.57 16.61 55.68 12.86 51.93 12.76 51.82 16.51"/><polygon class="cls-2" points="45.2 5 45.7 1.54 42.56 0 40.13 2.5 41.75 5.6 45.2 5"/><polygon class="cls-2" points="65.65 25.96 63.52 26.18 63.07 28.28 64.92 29.35 66.52 27.92 65.65 25.96"/><path class="cls-2" d="M50.77,6.49a2.36,2.36,0,1,0-1.08-3.16A2.35,2.35,0,0,0,50.77,6.49Z"/><polygon class="cls-2" points="55.9 23.14 58.7 21.76 57.34 18.97 54.52 20.35 55.9 23.14"/><polygon class="cls-2" points="47.73 22.42 52 20.42 48.13 17.72 47.73 22.42"/><polygon class="cls-2" points="36.83 11.58 37.33 7.17 32.89 6.68 32.39 11.09 36.83 11.58"/><polygon class="cls-2" points="32.43 1.08 25.13 0.55 28.3 7.13 32.43 1.08"/><polygon class="cls-2" points="58.18 10.88 56.12 6.12 53.02 10.29 58.18 10.88"/><polygon class="cls-2" points="62.3 0.53 58.32 3.44 62.83 5.44 62.3 0.53"/><polygon class="cls-2" points="44.12 14.59 42.57 15.38 43.19 16.59 41.99 17.2 42.78 18.75 43.98 18.13 44.6 19.34 46.16 18.54 45.53 17.34 46.74 16.71 45.94 15.18 44.74 15.79 44.12 14.59"/><polygon class="cls-2" points="62.12 7.25 61.56 8.7 60.12 8.15 59.41 10.01 60.85 10.55 60.3 12 62.16 12.71 62.71 11.26 64.16 11.81 64.86 9.96 63.42 9.41 63.97 7.97 62.12 7.25"/><polygon class="cls-2" points="48.47 13.37 50.25 13.66 50.96 9.29 46.58 8.57 46.29 10.35 48.9 10.76 48.47 13.37"/><polygon class="cls-2" points="45.13 8.11 43.36 7.78 42.86 10.4 40.22 9.9 39.88 11.7 44.3 12.53 45.13 8.11"/></svg>